<svg width="589" height="197" viewBox="0 0 589 197" fill="none" xmlns="http://www.w3.org/2000/svg">
<g clip-path="url(#clip0_1513_6807)">
<mask id="mask0_1513_6807" style="mask-type:luminance" maskUnits="userSpaceOnUse" x="-383" y="-295" width="1366" height="768">
<path d="M983 -295H-383V473H983V-295Z" fill="white"/>
</mask>
<g mask="url(#mask0_1513_6807)">
<mask id="mask1_1513_6807" style="mask-type:luminance" maskUnits="userSpaceOnUse" x="-383" y="-295" width="1366" height="768">
<path d="M983 -295H-383V473H983V-295Z" fill="white"/>
</mask>
<g mask="url(#mask1_1513_6807)">
<path d="M50.7 70.2C51.8 70.2 52.8 69.8 53.6 68.9C54.5 68.1 54.9 67.1 54.9 66C54.9 64.9 54.5 63.9 53.6 63C52.7 62.2 51.8 61.8 50.7 61.8C49.6 61.8 48.6 62.2 47.8 63C46.9 63.9 46.5 64.9 46.5 66C46.5 67.1 46.9 68.1 47.8 69C48.6 69.8 49.6 70.2 50.7 70.2Z" fill="#333333"/>
</g>
<mask id="mask2_1513_6807" style="mask-type:luminance" maskUnits="userSpaceOnUse" x="-383" y="-295" width="1366" height="768">
<path d="M983 -295H-383V473H983V-295Z" fill="white"/>
</mask>
<g mask="url(#mask2_1513_6807)">
<path d="M39.6 70.2C40.7 70.2 41.7 69.8 42.6 68.9C43.5 68.1 43.9 67.1 43.9 66C43.9 64.9 43.5 63.9 42.6 63C41.7 62.2 40.7 61.8 39.6 61.8C38.5 61.8 37.5 62.2 36.7 63C35.8 63.9 35.4 64.9 35.4 66C35.4 67.1 35.8 68.1 36.7 69C37.5 69.8 38.5 70.2 39.6 70.2Z" fill="#333333"/>
</g>
<mask id="mask3_1513_6807" style="mask-type:luminance" maskUnits="userSpaceOnUse" x="-383" y="-295" width="1366" height="768">
<path d="M983 -295H-383V473H983V-295Z" fill="white"/>
</mask>
<g mask="url(#mask3_1513_6807)">
<path d="M43.5 104.3C45.6 104.3 47.6 103.9 49.2 103.1C50.2 102.6 51.2 101.9 52.3 100.9C54.9 103.2 57.6 104.3 60.3 104.3H63.5H65H68.9C72 104.3 74.8 103.3 77.1 101.3C79.4 103.3 82.1 104.3 85.1 104.3H88.3H89.8H124.8C125.3 100.6 125.6 97.9 125.6 95.9C125.6 93.1 125.2 90.7 124.4 88.7C123.2 85.3 121.1 82.7 118.1 80.8C115.5 79.2 112.8 78.4 109.8 78.4C108.9 78.4 107.9 78.4 106.7 78.5L120 64.6H109.6L91.4 85.1L96.1 89.3C99.3 86.5 102.8 85.1 106.5 85.1C109.7 85.1 112.4 86.2 114.4 88.4C116.2 90.3 117 92.8 117 95.7C117 95.9 117 96.4 116.9 97.1H89.6H88.1H85.5C84 97.1 82.9 96.8 82 96.1C81.1 95.3 80.7 94.1 80.7 92.6V77.2L72.8 79.8V92.5C72.8 95.6 71.3 97.2 68.2 97.2H65H63.5H60.9C59.4 97.2 58.3 96.9 57.4 96.1C56.5 95.3 56.1 94.2 56.1 92.7V75.9H44.1C40.2 75.9 37.1 76.9 34.8 79C32.1 81.5 30.7 85.1 30.7 90C30.7 94.6 31.8 98.1 34.1 100.6C36.5 103 39.5 104.3 43.5 104.3ZM39.8 84.8C40.7 83.3 42.2 82.6 44.4 82.6H48.2V89.8C48.2 90.4 48.1 91 48 91.8C47.8 93.1 47.6 94 47.4 94.6C46.7 96.2 45.4 97.1 43.5 97.1C41.6 97.1 40.3 96.3 39.6 94.6C39.1 93.5 38.9 91.9 38.9 89.9C38.9 87.6 39.2 86 39.8 84.8Z" fill="#333333"/>
</g>
<mask id="mask4_1513_6807" style="mask-type:luminance" maskUnits="userSpaceOnUse" x="-383" y="-295" width="1366" height="768">
<path d="M983 -295H-383V473H983V-295Z" fill="white"/>
</mask>
<g mask="url(#mask4_1513_6807)">
<path d="M73 111C72.1 111.9 71.7 112.9 71.7 114C71.7 115.1 72.1 116.1 73 117C73.9 117.8 74.8 118.2 75.9 118.2C77 118.2 78 117.8 78.8 116.9C79.7 116.1 80.1 115.1 80.1 114C80.1 112.8 79.7 111.8 78.8 111C77.9 110.2 77 109.8 75.9 109.8C74.8 109.8 73.8 110.2 73 111Z" fill="#333333"/>
</g>
<mask id="mask5_1513_6807" style="mask-type:luminance" maskUnits="userSpaceOnUse" x="-383" y="-295" width="1366" height="768">
<path d="M983 -295H-383V473H983V-295Z" fill="white"/>
</mask>
<g mask="url(#mask5_1513_6807)">
<path d="M64.8 109.8C63.7 109.8 62.7 110.2 61.9 111C61 111.9 60.6 112.9 60.6 114C60.6 115.1 61 116.1 61.9 117C62.8 117.8 63.7 118.2 64.8 118.2C65.9 118.2 66.9 117.8 67.8 116.9C68.7 116.1 69.1 115.1 69.1 114C69.1 112.8 68.7 111.8 67.8 111C66.9 110.2 65.9 109.8 64.8 109.8Z" fill="#333333"/>
</g>
<mask id="mask6_1513_6807" style="mask-type:luminance" maskUnits="userSpaceOnUse" x="-383" y="-295" width="1366" height="768">
<path d="M983 -295H-383V473H983V-295Z" fill="white"/>
</mask>
<g mask="url(#mask6_1513_6807)">
<path d="M146 70.2C147.1 70.2 148.1 69.8 148.9 68.9C149.8 68.1 150.2 67.1 150.2 66C150.2 64.9 149.8 63.9 148.9 63C148 62.2 147.1 61.8 146 61.8C144.9 61.8 143.9 62.2 143.1 63C142.2 63.9 141.8 64.9 141.8 66C141.8 67.1 142.2 68.1 143.1 69C143.9 69.8 144.9 70.2 146 70.2Z" fill="#333333"/>
</g>
<mask id="mask7_1513_6807" style="mask-type:luminance" maskUnits="userSpaceOnUse" x="-383" y="-295" width="1366" height="768">
<path d="M983 -295H-383V473H983V-295Z" fill="white"/>
</mask>
<g mask="url(#mask7_1513_6807)">
<path d="M166 104.3H169.9C173.7 104.3 176.7 103.3 178.9 101.4C181.2 99.3 182.3 96.5 182.3 92.8V64L174.4 66.6V92.5C174.4 95.6 172.8 97.2 169.7 97.2H166H164.5H157.6V87.5C157.6 83.8 156.3 80.9 153.8 78.6C151.7 76.7 149 75.7 145.9 75.7C142.2 75.7 138.9 77.1 135.8 79.9V87.3C138.6 84.3 141.4 82.9 144.1 82.9C145.7 82.9 146.9 83.4 148 84.3C149.1 85.3 149.7 86.7 149.7 88.5V97.1H135.7L131 104.3H164.5H166Z" fill="#333333"/>
</g>
<mask id="mask8_1513_6807" style="mask-type:luminance" maskUnits="userSpaceOnUse" x="-383" y="-295" width="1366" height="768">
<path d="M983 -295H-383V473H983V-295Z" fill="white"/>
</mask>
<g mask="url(#mask8_1513_6807)">
<path d="M197.5 64L189.5 66.6V104.3H197.5V64Z" fill="#333333"/>
</g>
<mask id="mask9_1513_6807" style="mask-type:luminance" maskUnits="userSpaceOnUse" x="-383" y="-295" width="1366" height="768">
<path d="M983 -295H-383V473H983V-295Z" fill="white"/>
</mask>
<g mask="url(#mask9_1513_6807)">
<path d="M221.4 70.2C222.5 70.2 223.5 69.8 224.4 68.9C225.3 68.1 225.7 67.1 225.7 66C225.7 64.9 225.3 63.9 224.4 63C223.5 62.2 222.5 61.8 221.4 61.8C220.3 61.8 219.3 62.2 218.5 63C217.6 63.9 217.2 64.9 217.2 66C217.2 67.1 217.6 68.1 218.5 69C219.4 69.8 220.3 70.2 221.4 70.2Z" fill="#333333"/>
</g>
<mask id="mask10_1513_6807" style="mask-type:luminance" maskUnits="userSpaceOnUse" x="-383" y="-295" width="1366" height="768">
<path d="M983 -295H-383V473H983V-295Z" fill="white"/>
</mask>
<g mask="url(#mask10_1513_6807)">
<path d="M232.5 70.2C233.6 70.2 234.6 69.8 235.4 68.9C236.3 68.1 236.7 67.1 236.7 66C236.7 64.9 236.3 63.9 235.4 63C234.5 62.2 233.6 61.8 232.5 61.8C231.4 61.8 230.4 62.2 229.6 63C228.7 63.9 228.3 64.9 228.3 66C228.3 67.1 228.7 68.1 229.6 69C230.4 69.8 231.4 70.2 232.5 70.2Z" fill="#333333"/>
</g>
<mask id="mask11_1513_6807" style="mask-type:luminance" maskUnits="userSpaceOnUse" x="-383" y="-295" width="1366" height="768">
<path d="M983 -295H-383V473H983V-295Z" fill="white"/>
</mask>
<g mask="url(#mask11_1513_6807)">
<path d="M301.7 118.3C302.8 118.3 303.8 117.9 304.6 117C305.5 116.2 305.9 115.2 305.9 114.1C305.9 112.9 305.5 111.9 304.6 111.1C303.7 110.3 302.8 109.9 301.7 109.9C300.5 109.9 299.5 110.3 298.7 111.1C297.8 112 297.4 113 297.4 114.1C297.4 115.2 297.8 116.2 298.7 117.1C299.6 117.9 300.6 118.3 301.7 118.3Z" fill="#333333"/>
</g>
<mask id="mask12_1513_6807" style="mask-type:luminance" maskUnits="userSpaceOnUse" x="-383" y="-295" width="1366" height="768">
<path d="M983 -295H-383V473H983V-295Z" fill="white"/>
</mask>
<g mask="url(#mask12_1513_6807)">
<path d="M302.3 101.3C304.6 103.3 307.3 104.3 310.3 104.3H313.5H315H372.7H374.2H378.1C381.9 104.3 384.9 103.3 387.1 101.4C389.4 99.3 390.5 96.5 390.5 92.8V64L382.6 66.6V92.5C382.6 95.6 381 97.1 377.9 97.1H374.3H372.8H365V77.1L357 79.7V97.1H347.8V79.2L339.9 81.8V97.1H330.9V81.6L323 84.2V97.1H315H313.5H310.9C309.4 97.1 308.3 96.8 307.4 96.1C306.5 95.3 306.1 94.1 306.1 92.6V77.2L298.2 79.8V92.5C298.2 95.6 296.7 97.1 293.6 97.1H290.1H288.6H282.6V96.4C282.6 93.6 282.3 91.3 281.7 89.5C280.6 86.1 278.6 83.3 275.7 81.3C273 79.4 270.1 78.5 266.8 78.5C265.9 78.5 264.9 78.5 263.7 78.6L277 64.6H266.6L248.4 85.1L253.1 89.3C256.3 86.5 259.7 85.1 263.4 85.1C265.8 85.1 267.9 85.7 269.7 87C271.7 88.4 273 90.4 273.6 92.9C273.8 93.7 273.9 95.1 273.9 97.1H246.6H245.1H242.5C241 97.1 239.9 96.8 239 96C238.1 95.2 237.7 94.1 237.7 92.5V75.7H225.7C221.8 75.7 218.7 76.7 216.4 78.8C213.7 81.3 212.3 84.9 212.3 89.8C212.3 94.4 213.4 97.9 215.7 100.4C217.9 102.9 221 104.2 224.9 104.2C227 104.2 229 103.8 230.6 103C231.6 102.5 232.6 101.8 233.7 100.8C236.3 103.1 239 104.3 241.7 104.3H244.9H246.4H288.1H289.6H293.5C297.2 104.3 299.9 103.3 302.3 101.3ZM230 89.8C230 90.4 229.9 91 229.8 91.8C229.6 93.1 229.4 94 229.2 94.6C228.5 96.2 227.2 97.1 225.3 97.1C223.4 97.1 222.1 96.3 221.4 94.6C220.9 93.5 220.7 91.9 220.7 89.9C220.7 87.7 221 86 221.7 84.9C222.6 83.4 224.1 82.7 226.3 82.7H230.1V89.8H230Z" fill="#333333"/>
</g>
<mask id="mask13_1513_6807" style="mask-type:luminance" maskUnits="userSpaceOnUse" x="-383" y="-295" width="1366" height="768">
<path d="M983 -295H-383V473H983V-295Z" fill="white"/>
</mask>
<g mask="url(#mask13_1513_6807)">
<path d="M338.1 73.7C339.2 73.7 340.2 73.3 341 72.4C341.9 71.6 342.3 70.6 342.3 69.5C342.3 68.3 341.9 67.3 341 66.5C340.1 65.7 339.2 65.3 338.1 65.3C336.9 65.3 335.9 65.7 335.1 66.5C334.2 67.4 333.8 68.4 333.8 69.5C333.8 70.6 334.2 71.6 335.1 72.5C336 73.3 337 73.7 338.1 73.7Z" fill="#333333"/>
</g>
<mask id="mask14_1513_6807" style="mask-type:luminance" maskUnits="userSpaceOnUse" x="-383" y="-295" width="1366" height="768">
<path d="M983 -295H-383V473H983V-295Z" fill="white"/>
</mask>
<g mask="url(#mask14_1513_6807)">
<path d="M344.9 69.5C344.9 70.6 345.3 71.6 346.2 72.5C347.1 73.3 348 73.7 349.1 73.7C350.2 73.7 351.2 73.3 352.1 72.4C353 71.6 353.4 70.6 353.4 69.5C353.4 68.3 353 67.3 352.1 66.5C351.2 65.7 350.2 65.3 349.1 65.3C348 65.3 347 65.7 346.2 66.5C345.3 67.3 344.9 68.3 344.9 69.5Z" fill="#333333"/>
</g>
<mask id="mask15_1513_6807" style="mask-type:luminance" maskUnits="userSpaceOnUse" x="-383" y="-295" width="1366" height="768">
<path d="M983 -295H-383V473H983V-295Z" fill="white"/>
</mask>
<g mask="url(#mask15_1513_6807)">
<path d="M343.4 64.2C344.5 64.2 345.4 63.8 346.2 63C347 62.2 347.4 61.2 347.4 60.2C347.4 59.1 347 58.1 346.2 57.3C345.4 56.5 344.5 56.1 343.4 56.1C342.3 56.1 341.4 56.5 340.6 57.3C339.8 58.1 339.4 59.1 339.4 60.2C339.4 61.3 339.8 62.2 340.6 63C341.4 63.8 342.4 64.2 343.4 64.2Z" fill="#333333"/>
</g>
<mask id="mask16_1513_6807" style="mask-type:luminance" maskUnits="userSpaceOnUse" x="-383" y="-295" width="1366" height="768">
<path d="M983 -295H-383V473H983V-295Z" fill="white"/>
</mask>
<g mask="url(#mask16_1513_6807)">
<path d="M397.7 66.6V104.3H405.6V64L397.7 66.6Z" fill="#333333"/>
</g>
<mask id="mask17_1513_6807" style="mask-type:luminance" maskUnits="userSpaceOnUse" x="-383" y="-295" width="1366" height="768">
<path d="M983 -295H-383V473H983V-295Z" fill="white"/>
</mask>
<g mask="url(#mask17_1513_6807)">
<path d="M122 135.3C121.6 135.7 121.4 136.1 121.4 136.6C121.4 137.1 121.6 137.5 122 137.9C122.4 138.3 122.8 138.4 123.3 138.4C123.8 138.4 124.2 138.2 124.6 137.8C125 137.4 125.2 137 125.2 136.5C125.2 136 125 135.6 124.6 135.2C124.2 134.8 123.8 134.7 123.3 134.7C122.7 134.8 122.3 135 122 135.3Z" fill="#999999"/>
</g>
<mask id="mask18_1513_6807" style="mask-type:luminance" maskUnits="userSpaceOnUse" x="-383" y="-295" width="1366" height="768">
<path d="M983 -295H-383V473H983V-295Z" fill="white"/>
</mask>
<g mask="url(#mask18_1513_6807)">
<path d="M117.1 135.3C116.7 135.7 116.5 136.1 116.5 136.6C116.5 137.1 116.7 137.5 117.1 137.9C117.5 138.3 117.9 138.4 118.4 138.4C118.9 138.4 119.3 138.2 119.7 137.8C120.1 137.4 120.3 137 120.3 136.5C120.3 136 120.1 135.6 119.7 135.2C119.3 134.8 118.9 134.7 118.4 134.7C117.9 134.8 117.4 135 117.1 135.3Z" fill="#999999"/>
</g>
<mask id="mask19_1513_6807" style="mask-type:luminance" maskUnits="userSpaceOnUse" x="-383" y="-295" width="1366" height="768">
<path d="M983 -295H-383V473H983V-295Z" fill="white"/>
</mask>
<g mask="url(#mask19_1513_6807)">
<path d="M128.3 143.6C128.3 145 127.6 145.7 126.2 145.7H115.1C113.8 145.7 113.1 145 113.1 143.7V138L109.6 141V143.8C109.6 145.3 110 146.5 110.8 147.4C111.7 148.4 113.2 149 115.1 149H126.3C128 149 129.3 148.6 130.3 147.7C131.3 146.8 131.8 145.5 131.8 143.9V136L128.3 137.1V143.6Z" fill="#999999"/>
</g>
<mask id="mask20_1513_6807" style="mask-type:luminance" maskUnits="userSpaceOnUse" x="-383" y="-295" width="1366" height="768">
<path d="M983 -295H-383V473H983V-295Z" fill="white"/>
</mask>
<g mask="url(#mask20_1513_6807)">
<path d="M141.7 148.8H142.4H146.1H146.8H150.5H151.2H153.1C153.8 148.8 154.3 148.7 154.8 148.6C155.3 148.5 155.9 148.2 156.3 147.8C157.4 148.6 158.7 149 160.1 149C161.7 149 162.9 148.5 163.9 147.6C165.1 146.5 165.7 144.8 165.7 142.5C165.7 140.5 165.2 139 164.3 137.9C163.3 136.8 161.9 136.2 160.1 136.2C158.5 136.2 157.2 136.7 156.2 137.6C155 138.7 154.4 140.4 154.4 142.6V143.5C154.4 144.9 153.7 145.6 152.3 145.6H151.2H150.5H146.8H146H142.3H141.6M142.2 145.7H141.5H139.7C139.3 145.7 139 145.6 138.9 145.5C138.7 145.3 138.6 145 138.6 144.5V131L135.1 132.1V145C135.1 146.1 135.4 147 136 147.7C136.7 148.5 137.7 148.8 139 148.8H141.6H142.3M158.3 140.4C158.7 139.8 159.2 139.4 160 139.4C160.7 139.4 161.3 139.7 161.6 140.3C161.9 140.8 162.1 141.6 162.1 142.6C162.1 143.4 162 144 161.8 144.5C161.5 145.3 160.9 145.8 160 145.8C159.3 145.8 158.7 145.5 158.3 144.9C158 144.4 157.8 143.6 157.8 142.6C157.8 141.7 158 140.9 158.3 140.4Z" fill="#999999"/>
</g>
<mask id="mask21_1513_6807" style="mask-type:luminance" maskUnits="userSpaceOnUse" x="-383" y="-295" width="1366" height="768">
<path d="M983 -295H-383V473H983V-295Z" fill="white"/>
</mask>
<g mask="url(#mask21_1513_6807)">
<path d="M231.5 148.8C233.2 148.8 234.5 148.4 235.5 147.5C236.5 146.6 237 145.3 237 143.7V131L233.5 132.1V143.5C233.5 144.9 232.8 145.6 231.4 145.6H229.8H229.1H228.7C227.9 145.6 227.3 145.4 226.9 145.1C226.5 144.8 226.2 144.3 226.1 143.6C225.9 142.8 225.8 142.2 225.6 141.8C225.3 141 224.8 140.3 224.2 139.8C223.2 138.9 222 138.5 220.5 138.5C219.4 138.5 218.4 138.7 217.5 139.2C216.6 139.7 215.9 140.5 215.4 141.5C215.1 142 214.9 142.8 214.8 143.7C214.7 144.3 214.5 144.7 214.2 145.1C213.8 145.5 213.2 145.7 212.3 145.7H211.8H211H201V142.4C201 140 201.8 138.8 203.3 138.8C203.8 138.8 204.3 138.9 204.7 139.2C205 139.4 205.3 139.6 205.7 140L208.1 137.6C206.7 136.3 205.1 135.7 203.3 135.7C201.7 135.7 200.3 136.2 199.2 137.3C198 138.5 197.4 140.2 197.4 142.5V145.8H194.4H193.7H192.5C191.8 145.8 191.3 145.7 191 145.3C190.6 145 190.4 144.4 190.4 143.8V131L186.9 132.1V143.5C186.9 144.9 186.2 145.6 184.9 145.6H183.3H182.6H180.3V143.1C180.3 141.2 180 139.6 179.3 138.4C178.3 136.7 176.7 135.9 174.4 135.9C173.3 135.9 172.3 136.2 171.4 136.7C170.6 137.2 169.9 137.8 169.4 138.7C168.8 139.8 168.4 141.1 168.4 142.4C168.4 144.4 169 145.9 170.2 147.1C171.3 148.2 172.7 148.7 174.3 148.7H176.6C176.4 149.3 176.1 149.8 175.7 150.1C175.1 150.6 174.3 150.9 173.3 150.9C171.6 150.9 170 150.4 168.5 149.5L170.1 153.1C170.5 153.3 171 153.5 171.5 153.6C172.4 153.8 173.3 154 174.1 154C175.3 154 176.4 153.7 177.3 153.2C178.2 152.7 178.9 152 179.4 151.1C179.7 150.6 179.9 149.8 180.1 148.8H182.5H183.2H184.9C186.3 148.8 187.5 148.4 188.5 147.5C189.5 148.4 190.7 148.8 192 148.8H193.4H194.1H211H211.7H212.4C213.6 148.8 214.6 148.5 215.4 147.9C215.8 148.6 216.3 149.2 216.8 149.6C217.8 150.4 219 150.8 220.5 150.8C221.9 150.8 223.1 150.4 224.1 149.7C224.7 149.2 225.2 148.6 225.6 147.7C226.5 148.5 227.7 148.8 228.9 148.8H229.1H229.8H231.5ZM177.1 144.1V144.8V145.4V145.7H174.7C174.1 145.7 173.6 145.5 173.2 145.1C172.6 144.5 172.3 143.7 172.3 142.5C172.3 141.5 172.5 140.6 173 140C173.5 139.4 174 139.1 174.7 139.1C175.3 139.1 175.8 139.3 176.2 139.8C176.7 140.3 177 141.1 177.1 142C177.1 142.2 177.1 142.6 177.1 143.2V144.1ZM220.4 147.7C219.8 147.7 219.4 147.5 219 147.2C218.5 146.7 218.2 145.9 218.2 144.7C218.2 143.9 218.4 143.2 218.7 142.7C219.1 142 219.7 141.7 220.5 141.7C221.3 141.7 221.9 142 222.3 142.7C222.6 143.2 222.8 143.9 222.8 144.7C222.6 146.7 221.9 147.7 220.4 147.7Z" fill="#999999"/>
</g>
<mask id="mask22_1513_6807" style="mask-type:luminance" maskUnits="userSpaceOnUse" x="-383" y="-295" width="1366" height="768">
<path d="M983 -295H-383V473H983V-295Z" fill="white"/>
</mask>
<g mask="url(#mask22_1513_6807)">
<path d="M243.6 148.8V131L240.1 132.2V148.8H243.6Z" fill="#999999"/>
</g>
<mask id="mask23_1513_6807" style="mask-type:luminance" maskUnits="userSpaceOnUse" x="-383" y="-295" width="1366" height="768">
<path d="M983 -295H-383V473H983V-295Z" fill="white"/>
</mask>
<g mask="url(#mask23_1513_6807)">
<path d="M301.8 133.4C302.2 133 302.4 132.6 302.4 132.1C302.4 131.6 302.2 131.2 301.8 130.8C301.4 130.4 301 130.3 300.5 130.3C300 130.3 299.6 130.5 299.2 130.8C298.8 131.2 298.6 131.6 298.6 132.2C298.6 132.7 298.8 133.1 299.2 133.5C299.6 133.9 300 134 300.5 134C301 133.9 301.4 133.8 301.8 133.4Z" fill="#999999"/>
</g>
<mask id="mask24_1513_6807" style="mask-type:luminance" maskUnits="userSpaceOnUse" x="-383" y="-295" width="1366" height="768">
<path d="M983 -295H-383V473H983V-295Z" fill="white"/>
</mask>
<g mask="url(#mask24_1513_6807)">
<path d="M314.5 133C314.9 132.6 315.1 132.2 315.1 131.7C315.1 131.2 314.9 130.7 314.5 130.4C314.1 130 313.7 129.9 313.2 129.9C312.7 129.9 312.3 130.1 311.9 130.4C311.5 130.8 311.3 131.2 311.3 131.7C311.3 132.2 311.5 132.6 311.9 133C312.3 133.4 312.7 133.5 313.2 133.5C313.7 133.6 314.1 133.4 314.5 133Z" fill="#999999"/>
</g>
<mask id="mask25_1513_6807" style="mask-type:luminance" maskUnits="userSpaceOnUse" x="-383" y="-295" width="1366" height="768">
<path d="M983 -295H-383V473H983V-295Z" fill="white"/>
</mask>
<g mask="url(#mask25_1513_6807)">
<path d="M283.1 148.8H283.8H287.5H288.2H310H310.7H312.4C314.1 148.8 315.4 148.4 316.4 147.5C317.4 146.6 317.9 145.3 317.9 143.7V136L314.4 137.1V143.5C314.4 144.9 313.7 145.6 312.3 145.6H310.7H310H308V144.7C308 142.8 307.6 141.2 306.8 139.8C306.1 138.7 305.3 137.8 304.2 137.2C303.1 136.6 301.9 136.3 300.6 136.3C299.1 136.3 297.7 136.7 296.4 137.6C295.6 138.1 294.9 138.8 294.2 139.5V131.4L290.7 132.5V145.6H288.2H287.5H283.8H283.1M284.7 145.7H284H280.3H279.6H276H275.3H274.4C274 145.7 273.6 145.7 273.4 145.6C272.9 145.4 272.6 145 272.4 144.3C272.3 143.9 272.1 143.2 272 142.2C271.9 141.6 271.9 141.1 271.8 140.7C271.6 139.7 271.1 138.9 270.5 138.2C269.5 137.1 268.1 136.6 266.4 136.6H259.1C257.1 136.6 255.7 137.1 254.7 137.9C253.6 138.9 253 140.4 253 142.4V154L256.5 152.9V143C256.5 141.9 256.7 141 257.2 140.5C257.6 140 258.3 139.8 259.2 139.8H261.2C260.9 140.6 260.7 141.6 260.7 142.5C260.7 144.4 261.3 146 262.4 147.1C263.4 148.1 264.8 148.6 266.4 148.6C268.1 148.6 269.5 148 270.6 146.9C271.6 148 273 148.6 274.8 148.6H275.4H276.1H279.8H280.5H284.2H284.9M268.1 145.1C267.7 145.5 267.2 145.7 266.4 145.7C264.9 145.7 264.1 144.7 264.1 142.8C264.1 142 264.2 141.3 264.5 140.8C264.9 140.1 265.5 139.8 266.3 139.8C267.1 139.8 267.8 140.1 268.2 140.8C268.5 141.3 268.6 142 268.6 142.8C268.7 143.8 268.5 144.6 268.1 145.1ZM294.1 145.7C294.2 145.1 294.4 144.6 294.5 144.2C294.8 143.4 295.3 142.6 296 141.8C297.3 140.3 298.8 139.6 300.5 139.6C302.4 139.6 303.6 140.8 304.2 143.2C304.3 143.8 304.4 144.6 304.5 145.6H294.1V145.7Z" fill="#999999"/>
</g>
<mask id="mask26_1513_6807" style="mask-type:luminance" maskUnits="userSpaceOnUse" x="-383" y="-295" width="1366" height="768">
<path d="M983 -295H-383V473H983V-295Z" fill="white"/>
</mask>
<g mask="url(#mask26_1513_6807)">
<path d="M327 130.6C326.6 131 326.4 131.4 326.4 131.9C326.4 132.4 326.6 132.8 327 133.2C327.4 133.6 327.8 133.7 328.3 133.7C328.8 133.7 329.2 133.5 329.6 133.1C330 132.7 330.2 132.3 330.2 131.8C330.2 131.3 330 130.9 329.6 130.5C329.2 130.1 328.8 130 328.3 130C327.8 130.1 327.4 130.2 327 130.6Z" fill="#999999"/>
</g>
<mask id="mask27_1513_6807" style="mask-type:luminance" maskUnits="userSpaceOnUse" x="-383" y="-295" width="1366" height="768">
<path d="M983 -295H-383V473H983V-295Z" fill="white"/>
</mask>
<g mask="url(#mask27_1513_6807)">
<path d="M331.9 130.6C331.5 131 331.3 131.4 331.3 131.9C331.3 132.4 331.5 132.8 331.9 133.2C332.3 133.6 332.7 133.7 333.2 133.7C333.7 133.7 334.1 133.5 334.5 133.1C334.9 132.7 335.1 132.3 335.1 131.8C335.1 131.3 334.9 130.9 334.5 130.5C334.1 130.1 333.7 130 333.2 130C332.7 130.1 332.3 130.2 331.9 130.6Z" fill="#999999"/>
</g>
<mask id="mask28_1513_6807" style="mask-type:luminance" maskUnits="userSpaceOnUse" x="-383" y="-295" width="1366" height="768">
<path d="M983 -295H-383V473H983V-295Z" fill="white"/>
</mask>
<g mask="url(#mask28_1513_6807)">
<path d="M344.1 151.3C343.6 151.3 343.2 151.5 342.8 151.8C342.4 152.2 342.2 152.6 342.2 153.1C342.2 153.6 342.4 154 342.8 154.4C343.2 154.8 343.6 154.9 344.1 154.9C344.6 154.9 345 154.7 345.4 154.3C345.8 153.9 346 153.5 346 153C346 152.5 345.8 152 345.4 151.7C345 151.4 344.6 151.3 344.1 151.3Z" fill="#999999"/>
</g>
<mask id="mask29_1513_6807" style="mask-type:luminance" maskUnits="userSpaceOnUse" x="-383" y="-295" width="1366" height="768">
<path d="M983 -295H-383V473H983V-295Z" fill="white"/>
</mask>
<g mask="url(#mask29_1513_6807)">
<path d="M350.9 153.1C350.9 152.6 350.7 152.1 350.3 151.8C349.9 151.4 349.5 151.3 349 151.3C348.5 151.3 348.1 151.5 347.7 151.8C347.3 152.2 347.1 152.6 347.1 153.1C347.1 153.6 347.3 154 347.7 154.4C348.1 154.8 348.5 154.9 349 154.9C349.5 154.9 349.9 154.7 350.3 154.3C350.7 154.1 350.9 153.7 350.9 153.1Z" fill="#999999"/>
</g>
<mask id="mask30_1513_6807" style="mask-type:luminance" maskUnits="userSpaceOnUse" x="-383" y="-295" width="1366" height="768">
<path d="M983 -295H-383V473H983V-295Z" fill="white"/>
</mask>
<g mask="url(#mask30_1513_6807)">
<path d="M359 131.2C358.6 131.6 358.4 132 358.4 132.5C358.4 133 358.6 133.4 359 133.8C359.4 134.2 359.8 134.3 360.3 134.3C360.8 134.3 361.2 134.1 361.6 133.7C362 133.3 362.2 132.9 362.2 132.4C362.2 131.9 362 131.5 361.6 131.1C361.2 130.7 360.8 130.6 360.3 130.6C359.8 130.7 359.4 130.9 359 131.2Z" fill="#999999"/>
</g>
<mask id="mask31_1513_6807" style="mask-type:luminance" maskUnits="userSpaceOnUse" x="-383" y="-295" width="1366" height="768">
<path d="M983 -295H-383V473H983V-295Z" fill="white"/>
</mask>
<g mask="url(#mask31_1513_6807)">
<path d="M369.5 130.6C369.1 131 368.9 131.4 368.9 131.9C368.9 132.4 369.1 132.8 369.5 133.2C369.9 133.6 370.3 133.7 370.8 133.7C371.3 133.7 371.7 133.5 372.1 133.1C372.5 132.7 372.7 132.3 372.7 131.8C372.7 131.3 372.5 130.9 372.1 130.5C371.7 130.1 371.3 130 370.8 130C370.3 130.1 369.9 130.2 369.5 130.6Z" fill="#999999"/>
</g>
<mask id="mask32_1513_6807" style="mask-type:luminance" maskUnits="userSpaceOnUse" x="-383" y="-295" width="1366" height="768">
<path d="M983 -295H-383V473H983V-295Z" fill="white"/>
</mask>
<g mask="url(#mask32_1513_6807)">
<path d="M374.4 130.6C374 131 373.8 131.4 373.8 131.9C373.8 132.4 374 132.8 374.4 133.2C374.8 133.6 375.2 133.7 375.7 133.7C376.2 133.7 376.6 133.5 377 133.1C377.4 132.7 377.6 132.3 377.6 131.8C377.6 131.3 377.4 130.9 377 130.5C376.6 130.1 376.2 130 375.7 130C375.2 130.1 374.7 130.2 374.4 130.6Z" fill="#999999"/>
</g>
<mask id="mask33_1513_6807" style="mask-type:luminance" maskUnits="userSpaceOnUse" x="-383" y="-295" width="1366" height="768">
<path d="M983 -295H-383V473H983V-295Z" fill="white"/>
</mask>
<g mask="url(#mask33_1513_6807)">
<path d="M394.6 134.4C395.1 134.4 395.5 134.2 395.9 133.8C396.3 133.4 396.5 133 396.5 132.5C396.5 132 396.3 131.6 395.9 131.2C395.5 130.8 395.1 130.7 394.6 130.7C394.1 130.7 393.6 130.9 393.3 131.2C392.9 131.6 392.7 132 392.7 132.5C392.7 133 392.9 133.4 393.3 133.8C393.7 134.3 394.1 134.4 394.6 134.4Z" fill="#999999"/>
</g>
<mask id="mask34_1513_6807" style="mask-type:luminance" maskUnits="userSpaceOnUse" x="-383" y="-295" width="1366" height="768">
<path d="M983 -295H-383V473H983V-295Z" fill="white"/>
</mask>
<g mask="url(#mask34_1513_6807)">
<path d="M389.7 134.4C390.2 134.4 390.6 134.2 391 133.8C391.4 133.4 391.6 133 391.6 132.5C391.6 132 391.4 131.6 391 131.2C390.6 130.8 390.2 130.7 389.7 130.7C389.2 130.7 388.8 130.9 388.4 131.2C388 131.6 387.8 132 387.8 132.5C387.8 133 388 133.4 388.4 133.8C388.8 134.3 389.3 134.4 389.7 134.4Z" fill="#999999"/>
</g>
<mask id="mask35_1513_6807" style="mask-type:luminance" maskUnits="userSpaceOnUse" x="-383" y="-295" width="1366" height="768">
<path d="M983 -295H-383V473H983V-295Z" fill="white"/>
</mask>
<g mask="url(#mask35_1513_6807)">
<path d="M339.2 148.8H339.9H343.6H344.3H346C347.4 148.8 348.6 148.4 349.6 147.5C350.6 148.4 351.8 148.8 353.1 148.8H354.5H355.2H356.9C358.3 148.8 359.5 148.4 360.5 147.5C361.5 148.4 362.7 148.8 364 148.8H365.4H366.1H371.6C372.1 148.8 372.6 148.8 373.1 148.7C373.5 148.8 374 148.8 374.6 148.8H380H380.7H384.4H385.1H388.8H389.5H391.2C392.6 148.8 393.8 148.4 394.8 147.5C395.8 148.4 397 148.8 398.3 148.8H399.7H400.4H402.1C403.8 148.8 405.1 148.4 406.1 147.5C407.1 146.6 407.6 145.3 407.6 143.7V131L404.1 132.1V143.5C404.1 144.9 403.4 145.6 402 145.6H400.4H399.7H398.5C397.8 145.6 397.3 145.5 397 145.2C396.6 144.8 396.4 144.3 396.4 143.6V136.8L392.9 137.9V143.5C392.9 144.9 392.2 145.6 390.9 145.6H389.3H388.6H384.9H384.2H380.5H379.8H377.4C377.7 145.2 377.9 144.8 378 144.4C378.3 143.7 378.4 142.9 378.4 142.1C378.4 140.4 377.9 139 377 137.9C376 136.7 374.6 136.1 372.8 136.1C371.2 136.1 370 136.6 369 137.5C367.8 138.6 367.3 140.2 367.3 142.2C367.3 143.4 367.6 144.6 368.3 145.6H365.8H365.1H364C363.3 145.6 362.8 145.5 362.5 145.2C362.1 144.8 361.9 144.3 361.9 143.6V136.8L358.4 137.9V143.5C358.4 144.9 357.7 145.6 356.4 145.6H354.8H354.1H352.9C352.2 145.6 351.7 145.5 351.4 145.2C351 144.8 350.8 144.3 350.8 143.6V136.8L347.3 137.9V143.5C347.3 144.9 346.6 145.6 345.3 145.6H343.7H343H339.3H338.6M339.5 145.7H338.8H337.6C336.9 145.7 336.4 145.6 336.1 145.2C335.7 144.9 335.5 144.3 335.5 143.7V136.3H330.2C328.5 136.3 327.1 136.8 326.1 137.7C324.9 138.8 324.3 140.4 324.3 142.6C324.3 144.6 324.8 146.2 325.8 147.3C326.8 148.4 328.1 149 329.9 149C330.8 149 331.7 148.8 332.4 148.5C332.8 148.3 333.3 148 333.8 147.5C335 148.5 336.1 149 337.3 149H338.7H339.4M332.1 142.4C332.1 142.6 332.1 142.9 332 143.3C331.9 143.9 331.8 144.3 331.7 144.5C331.4 145.2 330.8 145.6 330 145.6C329.2 145.6 328.6 145.2 328.3 144.5C328.1 144 328 143.3 328 142.4C328 141.4 328.1 140.7 328.4 140.2C328.8 139.5 329.4 139.2 330.4 139.2H332.1V142.4ZM374.6 144.5C374.2 145 373.8 145.4 373.2 145.7C373.1 145.7 372.9 145.6 372.6 145.4C372.4 145.2 372.1 145 371.9 144.7C371.4 144 371.1 143.1 371.1 142.1C371.1 141.4 371.3 140.8 371.6 140.3C372 139.8 372.5 139.5 373.2 139.5C373.9 139.5 374.4 139.8 374.8 140.2C375.2 140.7 375.4 141.3 375.4 142.1C375.4 142.9 375.1 143.7 374.6 144.5Z" fill="#999999"/>
</g>
<mask id="mask36_1513_6807" style="mask-type:luminance" maskUnits="userSpaceOnUse" x="-383" y="-295" width="1366" height="768">
<path d="M983 -295H-383V473H983V-295Z" fill="white"/>
</mask>
<g mask="url(#mask36_1513_6807)">
<path d="M41.5 134.7C43 134.7 44.1 135 45 135.4L45.8 132.1C45.1 131.7 43.4 131.3 41.3 131.3C35.8 131.3 31.3 134.8 31.3 141C31.3 146.2 34.6 150.2 40.9 150.2C43.1 150.2 44.8 149.8 45.6 149.4L45 146.2C44.2 146.5 42.8 146.8 41.5 146.8C37.8 146.8 35.6 144.5 35.6 140.8C35.7 136.7 38.2 134.7 41.5 134.7Z" fill="#999999"/>
</g>
<mask id="mask37_1513_6807" style="mask-type:luminance" maskUnits="userSpaceOnUse" x="-383" y="-295" width="1366" height="768">
<path d="M983 -295H-383V473H983V-295Z" fill="white"/>
</mask>
<g mask="url(#mask37_1513_6807)">
<path d="M59.7 131.6L54.1 149.9H58.4L59.7 145.2H64.9L66.3 149.9H70.8L65.1 131.6H59.7ZM60.3 142.1L61.4 138.2C61.7 137.1 62 135.8 62.2 134.7H62.3C62.6 135.8 62.9 137.1 63.2 138.2L64.3 142.1H60.3Z" fill="#999999"/>
</g>
<mask id="mask38_1513_6807" style="mask-type:luminance" maskUnits="userSpaceOnUse" x="-383" y="-295" width="1366" height="768">
<path d="M983 -295H-383V473H983V-295Z" fill="white"/>
</mask>
<g mask="url(#mask38_1513_6807)">
<path d="M91.2 133.4C89.4 132.1 87.2 131.4 83.7 131.4C81.6 131.4 79.6 131.5 78.1 131.8V149.8C79.1 149.9 80.7 150.1 82.8 150.1C86.4 150.1 89.3 149.3 91.3 147.7C93.1 146.2 94.3 143.8 94.3 140.3C94.3 137.1 93.1 134.8 91.2 133.4ZM83.7 146.9C83.2 146.9 82.6 146.9 82.3 146.8V134.8C82.7 134.7 83.3 134.6 84.2 134.6C87.8 134.6 90 136.6 90 140.4C89.9 144.8 87.4 146.9 83.7 146.9Z" fill="#999999"/>
</g>
<mask id="mask39_1513_6807" style="mask-type:luminance" maskUnits="userSpaceOnUse" x="-383" y="-295" width="1366" height="768">
<path d="M983 -295H-383V473H983V-295Z" fill="white"/>
</mask>
<g mask="url(#mask39_1513_6807)">
<path d="M451.2 72.3C450.5 72.3 449.9 72 449.5 71.3C449 70.4 449.3 69.2 450.2 68.6C451.5 67.9 452.5 66.9 453.4 65.7C454 64.8 455.3 64.6 456.1 65.3C457 65.9 457.2 67.1 456.5 68C455.3 69.6 453.9 71 452.2 72C451.8 72.2 451.5 72.3 451.2 72.3Z" fill="#99CC33"/>
</g>
</g>
<mask id="mask40_1513_6807" style="mask-type:luminance" maskUnits="userSpaceOnUse" x="-383" y="-295" width="1366" height="768">
<path d="M983 -295H-383V473H983V-295Z" fill="white"/>
</mask>
<g mask="url(#mask40_1513_6807)">
<mask id="mask41_1513_6807" style="mask-type:luminance" maskUnits="userSpaceOnUse" x="534" y="150" width="9" height="9">
<path d="M539.6 150.8C537.9 152.5 536.4 154 535 155.3C534.2 156 534.2 157.3 534.9 158.1C535.3 158.5 535.8 158.7 536.3 158.7C536.8 158.7 537.3 158.5 537.6 158.2C539 156.8 540.6 155.3 542.3 153.6C543 152.8 543 151.6 542.3 150.8C541.9 150.4 541.4 150.3 540.9 150.3C540.5 150.2 540 150.4 539.6 150.8Z" fill="white"/>
</mask>
<g mask="url(#mask41_1513_6807)">
<path d="M543.1 150.2H534.2V158.7H543.1V150.2Z" fill="url(#paint0_linear_1513_6807)"/>
</g>
</g>
<mask id="mask42_1513_6807" style="mask-type:luminance" maskUnits="userSpaceOnUse" x="-383" y="-295" width="1366" height="768">
<path d="M983 -295H-383V473H983V-295Z" fill="white"/>
</mask>
<g mask="url(#mask42_1513_6807)">
<mask id="mask43_1513_6807" style="mask-type:luminance" maskUnits="userSpaceOnUse" x="552" y="54" width="19" height="71">
<path d="M552.8 54.8C552 55.5 551.9 56.7 552.6 57.5C558.3 64.1 562.4 71.8 564.7 80.4C568.5 94.4 567 109.2 560.4 122.1C559.9 123.1 560.3 124.2 561.3 124.7C561.6 124.8 561.9 124.9 562.2 124.9C562.9 124.9 563.6 124.5 563.9 123.8C570.9 110 572.5 94.3 568.4 79.4C565.9 70.3 561.6 62.1 555.5 55C555.1 54.6 554.6 54.3 554 54.3C553.7 54.3 553.2 54.5 552.8 54.8Z" fill="white"/>
</mask>
<g mask="url(#mask43_1513_6807)">
<path d="M572.5 54.3H551.9V124.9H572.5V54.3Z" fill="url(#paint1_linear_1513_6807)"/>
</g>
</g>
<mask id="mask44_1513_6807" style="mask-type:luminance" maskUnits="userSpaceOnUse" x="-383" y="-295" width="1366" height="768">
<path d="M983 -295H-383V473H983V-295Z" fill="white"/>
</mask>
<g mask="url(#mask44_1513_6807)">
<mask id="mask45_1513_6807" style="mask-type:luminance" maskUnits="userSpaceOnUse" x="526" y="129" width="24" height="27">
<path d="M546.3 130.7C540.7 138.7 534.1 146.1 526.9 152.5C526.1 153.2 526 154.4 526.7 155.3C527.1 155.7 527.6 156 528.2 156C528.7 156 529.1 155.8 529.5 155.5C537 148.9 543.7 141.3 549.5 133C550.1 132.1 549.9 130.9 549 130.3C548.7 130.1 548.3 129.9 547.9 129.9C547.3 129.9 546.7 130.2 546.3 130.7Z" fill="white"/>
</mask>
<g mask="url(#mask45_1513_6807)">
<path d="M550.1 129.9H526V155.9H550.1V129.9Z" fill="url(#paint2_linear_1513_6807)"/>
</g>
</g>
<mask id="mask46_1513_6807" style="mask-type:luminance" maskUnits="userSpaceOnUse" x="-383" y="-295" width="1366" height="768">
<path d="M983 -295H-383V473H983V-295Z" fill="white"/>
</mask>
<g mask="url(#mask46_1513_6807)">
<mask id="mask47_1513_6807" style="mask-type:luminance" maskUnits="userSpaceOnUse" x="539" y="52" width="25" height="76">
<path d="M539.8 53.2C539.1 54 539.3 55.3 540.1 55.9C548.6 62.6 554.6 71.8 557.4 82.4C561 95.6 559.2 109.3 552.4 121.1C551.7 122.2 551.1 123.4 550.4 124.5C549.8 125.4 550.1 126.6 551 127.2C551.3 127.4 551.7 127.5 552 127.5C552.7 127.5 553.3 127.2 553.7 126.6C554.4 125.4 555.1 124.3 555.8 123.1C563.1 110.4 565 95.6 561.2 81.4C558.1 70 551.7 60.1 542.5 52.9C542.1 52.6 541.7 52.5 541.3 52.5C540.7 52.4 540.1 52.7 539.8 53.2Z" fill="white"/>
</mask>
<g mask="url(#mask47_1513_6807)">
<path d="M565 52.4H539.1V127.4H565V52.4Z" fill="url(#paint3_linear_1513_6807)"/>
</g>
</g>
<mask id="mask48_1513_6807" style="mask-type:luminance" maskUnits="userSpaceOnUse" x="-383" y="-295" width="1366" height="768">
<path d="M983 -295H-383V473H983V-295Z" fill="white"/>
</mask>
<g mask="url(#mask48_1513_6807)">
<mask id="mask49_1513_6807" style="mask-type:luminance" maskUnits="userSpaceOnUse" x="442" y="45" width="47" height="37">
<path d="M486 45.6C475.3 50.3 466.5 58.2 460.7 68.4C458.2 72.8 454.2 75.9 449.3 77.2C447.6 77.7 445.9 77.9 444.2 77.9C444.1 77.9 444 77.9 444 77.9C442.9 77.9 442.1 78.8 442.1 79.8C442.1 80.9 443 81.8 444 81.8C444.1 81.8 444.2 81.8 444.3 81.8C446.4 81.8 448.4 81.5 450.5 81C456.4 79.4 461.2 75.6 464.2 70.4C469.6 61 477.8 53.6 487.7 49.2C488.7 48.8 489.1 47.6 488.7 46.6C488.4 45.9 487.7 45.4 486.9 45.4C486.5 45.4 486.2 45.5 486 45.6Z" fill="white"/>
</mask>
<g mask="url(#mask49_1513_6807)">
<path d="M489 45.4H441.9V81.7H489V45.4Z" fill="url(#paint4_linear_1513_6807)"/>
</g>
</g>
<mask id="mask50_1513_6807" style="mask-type:luminance" maskUnits="userSpaceOnUse" x="-383" y="-295" width="1366" height="768">
<path d="M983 -295H-383V473H983V-295Z" fill="white"/>
</mask>
<g mask="url(#mask50_1513_6807)">
<mask id="mask51_1513_6807" style="mask-type:luminance" maskUnits="userSpaceOnUse" x="-383" y="-295" width="1366" height="768">
<path d="M983 -295H-383V473H983V-295Z" fill="white"/>
</mask>
<g mask="url(#mask51_1513_6807)">
<path d="M519.8 153.1C519.2 153.1 518.7 152.9 518.3 152.4C517.6 151.6 517.7 150.3 518.6 149.7C529.5 140.8 538.7 129.9 545.9 117.4C551.7 107.3 553.2 95.6 550.2 84.4C547.2 73.2 540 63.9 530 58.1C528.7 57.4 527.4 56.7 526.2 56.2C525.2 55.8 524.8 54.6 525.2 53.6C525.6 52.6 526.8 52.2 527.8 52.6C529.1 53.2 530.5 53.9 531.9 54.7C542.8 61 550.7 71.2 554 83.3C557.3 95.5 555.6 108.3 549.4 119.2C542 132.1 532.5 143.3 521.2 152.6C520.7 153 520.3 153.1 519.8 153.1Z" fill="#643695"/>
</g>
</g>
<mask id="mask52_1513_6807" style="mask-type:luminance" maskUnits="userSpaceOnUse" x="-383" y="-295" width="1366" height="768">
<path d="M983 -295H-383V473H983V-295Z" fill="white"/>
</mask>
<g mask="url(#mask52_1513_6807)">
<mask id="mask53_1513_6807" style="mask-type:luminance" maskUnits="userSpaceOnUse" x="462" y="48" width="58" height="34">
<path d="M467.2 72.2C466 74.3 464.5 76.2 462.8 77.9C462 78.7 462 79.9 462.8 80.7C463.2 81.1 463.7 81.3 464.2 81.3C464.7 81.3 465.2 81.1 465.6 80.7C467.5 78.8 469.2 76.6 470.6 74.2C479.9 58.1 499 49.5 517.2 53.3C517.9 53.7 518.8 53.5 519.4 52.9C520.2 52.1 520.1 50.9 519.4 50.1L519 49.7L518.4 49.6C515.1 48.9 511.8 48.5 508.5 48.5C491.8 48.4 475.7 57.4 467.2 72.2Z" fill="white"/>
</mask>
<g mask="url(#mask53_1513_6807)">
<path d="M533.3 74.5999L473.7 104.4L449 54.9999L508.5 25.2L533.3 74.5999Z" fill="url(#paint5_linear_1513_6807)"/>
</g>
</g>
<mask id="mask54_1513_6807" style="mask-type:luminance" maskUnits="userSpaceOnUse" x="-383" y="-295" width="1366" height="768">
<path d="M983 -295H-383V473H983V-295Z" fill="white"/>
</mask>
<g mask="url(#mask54_1513_6807)">
<mask id="mask55_1513_6807" style="mask-type:luminance" maskUnits="userSpaceOnUse" x="441" y="83" width="16" height="7">
<path d="M453.5 83.8C452.8 84.1 452 84.3 451.2 84.5C448.6 85.2 446 85.5 443.3 85.4C442.2 85.4 441.3 86.2 441.3 87.3C441.3 88.4 442.1 89.3 443.2 89.3C443.5 89.3 443.9 89.3 444.2 89.3C446.9 89.3 449.6 88.9 452.2 88.2C453.1 88 454 87.7 454.8 87.4C455.8 87 456.3 85.9 456 84.9C455.7 84.1 455 83.6 454.2 83.6C453.9 83.7 453.7 83.7 453.5 83.8Z" fill="white"/>
</mask>
<g mask="url(#mask55_1513_6807)">
<path d="M456.4 83.7H441.3V89.3999H456.4V83.7Z" fill="url(#paint6_linear_1513_6807)"/>
</g>
</g>
<mask id="mask56_1513_6807" style="mask-type:luminance" maskUnits="userSpaceOnUse" x="-383" y="-295" width="1366" height="768">
<path d="M983 -295H-383V473H983V-295Z" fill="white"/>
</mask>
<g mask="url(#mask56_1513_6807)">
<mask id="mask57_1513_6807" style="mask-type:luminance" maskUnits="userSpaceOnUse" x="515" y="112" width="28" height="33">
<path d="M539.3 113.6C533.2 124.2 525.6 133.5 516.6 141.4C515.8 142.1 515.7 143.3 516.4 144.2C516.8 144.6 517.3 144.9 517.9 144.9C518.4 144.9 518.8 144.7 519.2 144.4C528.5 136.2 536.4 126.5 542.7 115.6C543.2 114.7 542.9 113.5 542 112.9C541.7 112.7 541.4 112.6 541 112.6C540.3 112.6 539.7 112.9 539.3 113.6Z" fill="white"/>
</mask>
<g mask="url(#mask57_1513_6807)">
<path d="M543.3 112.6H515.8V144.8H543.3V112.6Z" fill="url(#paint7_linear_1513_6807)"/>
</g>
</g>
<mask id="mask58_1513_6807" style="mask-type:luminance" maskUnits="userSpaceOnUse" x="-383" y="-295" width="1366" height="768">
<path d="M983 -295H-383V473H983V-295Z" fill="white"/>
</mask>
<g mask="url(#mask58_1513_6807)">
<mask id="mask59_1513_6807" style="mask-type:luminance" maskUnits="userSpaceOnUse" x="-383" y="-295" width="1366" height="768">
<path d="M983 -295H-383V473H983V-295Z" fill="white"/>
</mask>
<g mask="url(#mask59_1513_6807)">
<path d="M544.8 107.4C544.6 107.4 544.5 107.4 544.3 107.3C543.3 107 542.6 106 542.9 104.9C544.5 98.9 544.5 92.4 542.8 86.3C540.3 77.1 534.4 69.3 526.1 64.6C524.7 63.8 523.3 63.1 521.8 62.5C505.2 55.7 486 62.3 477.1 77.8C472 86.6 463.9 92.9 454.2 95.5C450.6 96.5 446.9 96.9 443.3 96.8C442.2 96.8 441.4 95.9 441.4 94.8C441.4 93.7 442.3 92.9 443.3 92.9C443.3 92.9 443.3 92.9 443.4 92.9C446.7 93 450 92.6 453.2 91.7C461.9 89.3 469.2 83.7 473.8 75.8C483.7 58.6 505 51.3 523.4 58.8C525 59.5 526.6 60.3 528.1 61.1C537.3 66.4 543.9 74.9 546.6 85.2C548.4 92 548.5 99.1 546.7 105.8C546.4 106.8 545.6 107.4 544.8 107.4Z" fill="#643695"/>
</g>
<mask id="mask60_1513_6807" style="mask-type:luminance" maskUnits="userSpaceOnUse" x="-383" y="-295" width="1366" height="768">
<path d="M983 -295H-383V473H983V-295Z" fill="white"/>
</mask>
<g mask="url(#mask60_1513_6807)">
<path d="M515.3 137.6H514.5C513.4 137.6 512.5 136.7 512.5 135.7C512.5 135.1 512.8 134.5 513.3 134.1C520.9 127.1 527.4 118.9 532.7 109.8C536.5 103.3 537.4 95.6 535.5 88.3C533.5 81 528.8 74.9 522.3 71.2C521.1 70.5 520 70 518.9 69.6C505.8 64.2 490.7 69.4 483.6 81.7C477.6 92.2 467.8 99.7 456.1 102.9C452.7 103.8 449.3 104.4 445.8 104.5C444.7 104.6 443.8 103.7 443.8 102.6C443.8 101.5 444.6 100.6 445.7 100.6C448.9 100.5 452 100 455.1 99.1C465.8 96.2 474.7 89.3 480.3 79.7C488.3 65.7 505.6 59.8 520.4 65.9C521.6 66.4 522.9 67 524.2 67.8C531.6 72.1 537 79 539.2 87.3C541.4 95.6 540.3 104.3 536.1 111.7C530.6 121.2 523.8 129.8 515.8 137.1L515.3 137.6Z" fill="#643695"/>
</g>
</g>
<mask id="mask61_1513_6807" style="mask-type:luminance" maskUnits="userSpaceOnUse" x="-383" y="-295" width="1366" height="768">
<path d="M983 -295H-383V473H983V-295Z" fill="white"/>
</mask>
<g mask="url(#mask61_1513_6807)">
<mask id="mask62_1513_6807" style="mask-type:luminance" maskUnits="userSpaceOnUse" x="496" y="71" width="38" height="64">
<path d="M498 73.3C497 73.7 496.6 74.9 497 75.9C497.4 76.9 498.6 77.3 499.6 76.9C504.8 74.5 510.8 74.4 516.1 76.6C517 77 517.8 77.4 518.6 77.8C523.4 80.5 526.8 85 528.3 90.3C529.7 95.6 529 101.2 526.3 106C520.7 115.8 513.5 124.4 505 131.5C504.2 132.2 504.1 133.4 504.8 134.2C505.2 134.7 505.7 134.9 506.3 134.9C506.7 134.9 507.2 134.8 507.6 134.4C516.5 127 524 118 529.8 107.8C533.1 102.1 533.9 95.4 532.2 89.1C530.5 82.7 526.4 77.4 520.7 74.2C519.8 73.7 518.9 73.2 517.8 72.8C514.8 71.6 511.7 71 508.5 71C504.8 71.1 501.3 71.8 498 73.3Z" fill="white"/>
</mask>
<g mask="url(#mask62_1513_6807)">
<path d="M481.1 131L498.9 62.1L549.3 75.1L531.4 144L481.1 131Z" fill="url(#paint8_linear_1513_6807)"/>
</g>
</g>
<mask id="mask63_1513_6807" style="mask-type:luminance" maskUnits="userSpaceOnUse" x="-383" y="-295" width="1366" height="768">
<path d="M983 -295H-383V473H983V-295Z" fill="white"/>
</mask>
<g mask="url(#mask63_1513_6807)">
<mask id="mask64_1513_6807" style="mask-type:luminance" maskUnits="userSpaceOnUse" x="-383" y="-295" width="1366" height="768">
<path d="M983 -295H-383V473H983V-295Z" fill="white"/>
</mask>
<g mask="url(#mask64_1513_6807)">
<path d="M453.2 111.2C452.3 111.2 451.4 110.5 451.3 109.6C451.1 108.5 451.8 107.5 452.9 107.4C454.2 107.2 455.6 106.9 457.2 106.5C469.8 103.1 480.4 94.9001 486.9 83.6001C487.4 82.7001 488.6 82.3 489.6 82.9C490.5 83.4 490.9 84.6001 490.3 85.6001C483.2 97.9001 471.8 106.7 458.2 110.3C456.5 110.8 455 111.1 453.6 111.3C453.4 111.2 453.3 111.2 453.2 111.2Z" fill="#643695"/>
</g>
<mask id="mask65_1513_6807" style="mask-type:luminance" maskUnits="userSpaceOnUse" x="-383" y="-295" width="1366" height="768">
<path d="M983 -295H-383V473H983V-295Z" fill="white"/>
</mask>
<g mask="url(#mask65_1513_6807)">
<path d="M497.4 132.2C496.8 132.2 496.2 131.9 495.8 131.4C495.2 130.5 495.3 129.3 496.2 128.7C505.7 121.6 513.6 112.7 519.6 102.2C520.1 101.3 521.3 100.9 522.3 101.5C523.2 102 523.6 103.2 523 104.2C516.7 115.1 508.5 124.4 498.5 131.8C498.2 132.1 497.8 132.2 497.4 132.2Z" fill="#643695"/>
</g>
</g>
<mask id="mask66_1513_6807" style="mask-type:luminance" maskUnits="userSpaceOnUse" x="-383" y="-295" width="1366" height="768">
<path d="M983 -295H-383V473H983V-295Z" fill="white"/>
</mask>
<g mask="url(#mask66_1513_6807)">
<mask id="mask67_1513_6807" style="mask-type:luminance" maskUnits="userSpaceOnUse" x="487" y="78" width="38" height="20">
<path d="M493.4 87.2C491.9 89.9 490.1 92.4 488.2 94.8C487.5 95.6 487.6 96.9 488.5 97.5C488.9 97.8 489.3 97.9 489.7 97.9C490.3 97.9 490.8 97.7 491.2 97.2C493.3 94.7 495.1 91.9 496.8 89.1C500.1 83.4 507.1 81 513.2 83.5C513.7 83.7 514.2 84 514.8 84.3C517.8 86 520 88.9 520.9 92.3C521.2 93.3 522.3 94 523.3 93.7C524.3 93.4 525 92.3 524.7 91.3C523.5 86.9 520.7 83.2 516.8 81C516.1 80.6 515.5 80.3 514.7 80C512.6 79.1 510.4 78.7 508.3 78.7C502.3 78.7 496.5 81.8 493.4 87.2Z" fill="white"/>
</mask>
<g mask="url(#mask67_1513_6807)">
<path d="M525 78.7H487.5V98.1H525V78.7Z" fill="url(#paint9_linear_1513_6807)"/>
</g>
</g>
<mask id="mask68_1513_6807" style="mask-type:luminance" maskUnits="userSpaceOnUse" x="-383" y="-295" width="1366" height="768">
<path d="M983 -295H-383V473H983V-295Z" fill="white"/>
</mask>
<g mask="url(#mask68_1513_6807)">
<mask id="mask69_1513_6807" style="mask-type:luminance" maskUnits="userSpaceOnUse" x="469" y="102" width="15" height="11">
<path d="M480.2 102.9C477.3 105.3 474 107.4 470.7 109.2C469.7 109.7 469.4 110.9 469.9 111.8C470.2 112.5 470.9 112.8 471.6 112.8C471.9 112.8 472.2 112.7 472.5 112.6C476.1 110.7 479.5 108.5 482.7 105.9C483.5 105.2 483.7 104 483 103.2C482.6 102.7 482.1 102.5 481.5 102.5C481 102.5 480.5 102.6 480.2 102.9Z" fill="white"/>
</mask>
<g mask="url(#mask69_1513_6807)">
<path d="M483.6 102.5H469.3V112.9H483.6V102.5Z" fill="url(#paint10_linear_1513_6807)"/>
</g>
</g>
<mask id="mask70_1513_6807" style="mask-type:luminance" maskUnits="userSpaceOnUse" x="-383" y="-295" width="1366" height="768">
<path d="M983 -295H-383V473H983V-295Z" fill="white"/>
</mask>
<g mask="url(#mask70_1513_6807)">
<mask id="mask71_1513_6807" style="mask-type:luminance" maskUnits="userSpaceOnUse" x="-383" y="-295" width="1366" height="768">
<path d="M983 -295H-383V473H983V-295Z" fill="white"/>
</mask>
<g mask="url(#mask71_1513_6807)">
<path d="M488.3 129.4C487.7 129.4 487 129.1 486.7 128.5C486.1 127.6 486.4 126.4 487.3 125.8C497.9 119 506.8 109.6 513.2 98.6C514.7 95.9 513.8 92.5 511.1 90.9C509.8 90.2 508.3 90 506.8 90.4C505.4 90.8 504.2 91.7 503.4 93C499 100.6 493.4 107.2 486.6 112.5C485.8 113.2 484.5 113 483.9 112.2C483.2 111.4 483.4 110.1 484.2 109.5C490.6 104.5 495.9 98.3 500 91.1C501.3 88.9 503.3 87.3 505.7 86.7C508.2 86 510.7 86.4 512.9 87.6C517.4 90.2 519 96 516.4 100.6C509.7 112.2 500.3 122.1 489.2 129.2C489 129.3 488.6 129.4 488.3 129.4Z" fill="#643695"/>
</g>
</g>
<mask id="mask72_1513_6807" style="mask-type:luminance" maskUnits="userSpaceOnUse" x="-383" y="-295" width="1366" height="768">
<path d="M983 -295H-383V473H983V-295Z" fill="white"/>
</mask>
<g mask="url(#mask72_1513_6807)">
<mask id="mask73_1513_6807" style="mask-type:luminance" maskUnits="userSpaceOnUse" x="484" y="93" width="27" height="29">
<path d="M506.5 94.7C501.1 104 494 111.9 485.2 118C484.3 118.6 484.1 119.8 484.7 120.7C485.1 121.2 485.7 121.5 486.3 121.5C486.7 121.5 487.1 121.4 487.4 121.2C496.7 114.8 504.2 106.5 509.9 96.7C510.4 95.8 510.1 94.6 509.2 94C508.9 93.8 508.6 93.7 508.2 93.7C507.6 93.8 506.9 94.1 506.5 94.7Z" fill="white"/>
</mask>
<g mask="url(#mask73_1513_6807)">
<path d="M524.4 107.5L497.5 134.7L470.2 107.8L497.1 80.6L524.4 107.5Z" fill="url(#paint11_linear_1513_6807)"/>
</g>
</g>
<mask id="mask74_1513_6807" style="mask-type:luminance" maskUnits="userSpaceOnUse" x="-383" y="-295" width="1366" height="768">
<path d="M983 -295H-383V473H983V-295Z" fill="white"/>
</mask>
<g mask="url(#mask74_1513_6807)">
<mask id="mask75_1513_6807" style="mask-type:luminance" maskUnits="userSpaceOnUse" x="-383" y="-295" width="1366" height="768">
<path d="M983 -295H-383V473H983V-295Z" fill="white"/>
</mask>
<g mask="url(#mask75_1513_6807)">
<path d="M545 109.8C545 110.9 544.1 111.9 542.9 111.9C541.7 111.9 540.8 111 540.8 109.8C540.8 108.7 541.7 107.7 542.9 107.7C544.1 107.7 545 108.7 545 109.8Z" fill="#99CC33"/>
</g>
<mask id="mask76_1513_6807" style="mask-type:luminance" maskUnits="userSpaceOnUse" x="-383" y="-295" width="1366" height="768">
<path d="M983 -295H-383V473H983V-295Z" fill="white"/>
</mask>
<g mask="url(#mask76_1513_6807)">
<path d="M487.8 100.6C487.8 101.7 486.9 102.7 485.7 102.7C484.5 102.7 483.6 101.8 483.6 100.6C483.6 99.5 484.5 98.5 485.7 98.5C486.9 98.5 487.8 99.4 487.8 100.6Z" fill="#99CC33"/>
</g>
<mask id="mask77_1513_6807" style="mask-type:luminance" maskUnits="userSpaceOnUse" x="-383" y="-295" width="1366" height="768">
<path d="M983 -295H-383V473H983V-295Z" fill="white"/>
</mask>
<g mask="url(#mask77_1513_6807)">
<path d="M462.3 82.5C462.3 83.6 461.4 84.6 460.2 84.6C459 84.6 458.1 83.7 458.1 82.5C458.1 81.4 459 80.4 460.2 80.4C461.4 80.4 462.3 81.3 462.3 82.5Z" fill="#99CC33"/>
</g>
<mask id="mask78_1513_6807" style="mask-type:luminance" maskUnits="userSpaceOnUse" x="-383" y="-295" width="1366" height="768">
<path d="M983 -295H-383V473H983V-295Z" fill="white"/>
</mask>
<g mask="url(#mask78_1513_6807)">
<path d="M494.9 79.3C494.9 80.4 494 81.4 492.8 81.4C491.6 81.4 490.7 80.5 490.7 79.3C490.7 78.2 491.6 77.2 492.8 77.2C494 77.2 494.9 78.2 494.9 79.3Z" fill="#99CC33"/>
</g>
</g>
</g>
<defs>
<linearGradient id="paint0_linear_1513_6807" x1="534.39" y1="154.49" x2="542.917" y2="154.49" gradientUnits="userSpaceOnUse">
<stop stop-color="#0097CC"/>
<stop offset="1.06556e-08" stop-color="#0097CC"/>
<stop offset="1" stop-color="#0097CC"/>
</linearGradient>
<linearGradient id="paint1_linear_1513_6807" x1="562.226" y1="119.221" x2="562.226" y2="55.2399" gradientUnits="userSpaceOnUse">
<stop stop-color="#643695"/>
<stop offset="5.96712e-07" stop-color="#643695"/>
<stop offset="1" stop-color="#643695"/>
</linearGradient>
<linearGradient id="paint2_linear_1513_6807" x1="526.207" y1="142.909" x2="549.842" y2="142.909" gradientUnits="userSpaceOnUse">
<stop stop-color="#643695"/>
<stop offset="5.96712e-07" stop-color="#643695"/>
<stop offset="1" stop-color="#643695"/>
</linearGradient>
<linearGradient id="paint3_linear_1513_6807" x1="539.341" y1="89.9786" x2="563.114" y2="89.9786" gradientUnits="userSpaceOnUse">
<stop stop-color="#643695"/>
<stop offset="5.96712e-07" stop-color="#643695"/>
<stop offset="1" stop-color="#643695"/>
</linearGradient>
<linearGradient id="paint4_linear_1513_6807" x1="441.913" y1="63.6275" x2="488.699" y2="63.6275" gradientUnits="userSpaceOnUse">
<stop stop-color="#643695"/>
<stop offset="5.96712e-07" stop-color="#643695"/>
<stop offset="1" stop-color="#643695"/>
</linearGradient>
<linearGradient id="paint5_linear_1513_6807" x1="516.637" y1="52.0165" x2="468.16" y2="76.255" gradientUnits="userSpaceOnUse">
<stop stop-color="#643695"/>
<stop offset="5.96712e-07" stop-color="#643695"/>
<stop offset="1" stop-color="#643695"/>
</linearGradient>
<linearGradient id="paint6_linear_1513_6807" x1="441.352" y1="86.4868" x2="456.119" y2="86.4868" gradientUnits="userSpaceOnUse">
<stop stop-color="#0097CC"/>
<stop offset="1.06556e-08" stop-color="#0097CC"/>
<stop offset="1" stop-color="#0097CC"/>
</linearGradient>
<linearGradient id="paint7_linear_1513_6807" x1="515.985" y1="128.679" x2="542.964" y2="128.679" gradientUnits="userSpaceOnUse">
<stop stop-color="#643695"/>
<stop offset="5.96712e-07" stop-color="#643695"/>
<stop offset="1" stop-color="#643695"/>
</linearGradient>
<linearGradient id="paint8_linear_1513_6807" x1="506.962" y1="134.672" x2="522.047" y2="76.5552" gradientUnits="userSpaceOnUse">
<stop stop-color="#643695"/>
<stop offset="5.96712e-07" stop-color="#643695"/>
<stop offset="1" stop-color="#643695"/>
</linearGradient>
<linearGradient id="paint9_linear_1513_6807" x1="487.769" y1="88.355" x2="524.764" y2="88.355" gradientUnits="userSpaceOnUse">
<stop stop-color="#643695"/>
<stop offset="5.96712e-07" stop-color="#643695"/>
<stop offset="1" stop-color="#643695"/>
</linearGradient>
<linearGradient id="paint10_linear_1513_6807" x1="469.591" y1="107.674" x2="483.357" y2="107.674" gradientUnits="userSpaceOnUse">
<stop stop-color="#643695"/>
<stop offset="5.96712e-07" stop-color="#643695"/>
<stop offset="1" stop-color="#643695"/>
</linearGradient>
<linearGradient id="paint11_linear_1513_6807" x1="508.78" y1="95.9846" x2="487.641" y2="117.405" gradientUnits="userSpaceOnUse">
<stop stop-color="#0097CC"/>
<stop offset="1.06556e-08" stop-color="#0097CC"/>
<stop offset="1" stop-color="#0097CC"/>
</linearGradient>
<clipPath id="clip0_1513_6807">
<rect width="589" height="197" fill="white"/>
</clipPath>
</defs>
</svg>
