<?xml version="1.0" encoding="utf-8"?>
<!-- Generator: Adobe Illustrator 23.0.0, SVG Export Plug-In . SVG Version: 6.00 Build 0)  -->
<svg version="1.1" id="Layer_1" xmlns="http://www.w3.org/2000/svg" xmlns:xlink="http://www.w3.org/1999/xlink" x="0px" y="0px"
	 viewBox="0 0 1366 768" style="enable-background:new 0 0 1366 768;" xml:space="preserve">
<style type="text/css">
	.st0{clip-path:url(#SVGID_2_);}
	.st1{clip-path:url(#SVGID_4_);fill:#333333;}
	.st2{clip-path:url(#SVGID_4_);fill:#999999;}
	.st3{clip-path:url(#SVGID_4_);fill:#99CC33;}
	.st4{filter:url(#Adobe_OpacityMaskFilter);}
	.st5{clip-path:url(#SVGID_6_);fill:url(#SVGID_8_);}
	.st6{clip-path:url(#SVGID_6_);mask:url(#SVGID_7_);fill:url(#SVGID_9_);}
	.st7{filter:url(#Adobe_OpacityMaskFilter_1_);}
	.st8{clip-path:url(#SVGID_11_);fill:url(#SVGID_13_);}
	.st9{clip-path:url(#SVGID_11_);mask:url(#SVGID_12_);fill:url(#SVGID_14_);}
	.st10{filter:url(#Adobe_OpacityMaskFilter_2_);}
	.st11{clip-path:url(#SVGID_16_);fill:url(#SVGID_18_);}
	.st12{clip-path:url(#SVGID_16_);mask:url(#SVGID_17_);fill:url(#SVGID_19_);}
	.st13{filter:url(#Adobe_OpacityMaskFilter_3_);}
	.st14{clip-path:url(#SVGID_21_);fill:url(#SVGID_23_);}
	.st15{clip-path:url(#SVGID_21_);mask:url(#SVGID_22_);fill:url(#SVGID_24_);}
	.st16{filter:url(#Adobe_OpacityMaskFilter_4_);}
	.st17{clip-path:url(#SVGID_26_);fill:url(#SVGID_28_);}
	.st18{clip-path:url(#SVGID_26_);mask:url(#SVGID_27_);fill:url(#SVGID_29_);}
	.st19{clip-path:url(#SVGID_31_);fill:#643695;}
	.st20{filter:url(#Adobe_OpacityMaskFilter_5_);}
	.st21{clip-path:url(#SVGID_33_);fill:url(#SVGID_35_);}
	.st22{clip-path:url(#SVGID_33_);mask:url(#SVGID_34_);fill:url(#SVGID_36_);}
	.st23{filter:url(#Adobe_OpacityMaskFilter_6_);}
	.st24{clip-path:url(#SVGID_38_);fill:url(#SVGID_40_);}
	.st25{clip-path:url(#SVGID_38_);mask:url(#SVGID_39_);fill:url(#SVGID_41_);}
	.st26{filter:url(#Adobe_OpacityMaskFilter_7_);}
	.st27{clip-path:url(#SVGID_43_);fill:url(#SVGID_45_);}
	.st28{clip-path:url(#SVGID_43_);mask:url(#SVGID_44_);fill:url(#SVGID_46_);}
	.st29{clip-path:url(#SVGID_48_);fill:#643695;}
	.st30{filter:url(#Adobe_OpacityMaskFilter_8_);}
	.st31{clip-path:url(#SVGID_50_);fill:url(#SVGID_52_);}
	.st32{clip-path:url(#SVGID_50_);mask:url(#SVGID_51_);fill:url(#SVGID_53_);}
	.st33{clip-path:url(#SVGID_55_);fill:#643695;}
	.st34{filter:url(#Adobe_OpacityMaskFilter_9_);}
	.st35{clip-path:url(#SVGID_57_);fill:url(#SVGID_59_);}
	.st36{clip-path:url(#SVGID_57_);mask:url(#SVGID_58_);fill:url(#SVGID_60_);}
	.st37{filter:url(#Adobe_OpacityMaskFilter_10_);}
	.st38{clip-path:url(#SVGID_62_);fill:url(#SVGID_64_);}
	.st39{clip-path:url(#SVGID_62_);mask:url(#SVGID_63_);fill:url(#SVGID_65_);}
	.st40{clip-path:url(#SVGID_67_);fill:#643695;}
	.st41{filter:url(#Adobe_OpacityMaskFilter_11_);}
	.st42{clip-path:url(#SVGID_69_);fill:url(#SVGID_71_);}
	.st43{clip-path:url(#SVGID_69_);mask:url(#SVGID_70_);fill:url(#SVGID_72_);}
	.st44{clip-path:url(#SVGID_74_);fill:#99CC33;}
</style>
<g>
	<defs>
		<rect id="SVGID_1_" width="1366" height="768"/>
	</defs>
	<clipPath id="SVGID_2_">
		<use xlink:href="#SVGID_1_"  style="overflow:visible;"/>
	</clipPath>
	<g class="st0">
		<defs>
			<rect id="SVGID_3_" width="1366" height="768"/>
		</defs>
		<clipPath id="SVGID_4_">
			<use xlink:href="#SVGID_3_"  style="overflow:visible;"/>
		</clipPath>
		<path class="st1" d="M433.7,365.2c1.1,0,2.1-0.4,2.9-1.3c0.9-0.8,1.3-1.8,1.3-2.9c0-1.1-0.4-2.1-1.3-3c-0.9-0.8-1.8-1.2-2.9-1.2
			c-1.1,0-2.1,0.4-2.9,1.2c-0.9,0.9-1.3,1.9-1.3,3c0,1.1,0.4,2.1,1.3,3C431.6,364.8,432.6,365.2,433.7,365.2"/>
		<path class="st1" d="M422.6,365.2c1.1,0,2.1-0.4,3-1.3c0.9-0.8,1.3-1.8,1.3-2.9c0-1.1-0.4-2.1-1.3-3c-0.9-0.8-1.9-1.2-3-1.2
			c-1.1,0-2.1,0.4-2.9,1.2c-0.9,0.9-1.3,1.9-1.3,3c0,1.1,0.4,2.1,1.3,3C420.5,364.8,421.5,365.2,422.6,365.2"/>
		<path class="st1" d="M426.5,399.3c2.1,0,4.1-0.4,5.7-1.2c1-0.5,2-1.2,3.1-2.2c2.6,2.3,5.3,3.4,8,3.4h3.2h1.5h3.9
			c3.1,0,5.9-1,8.2-3c2.3,2,5,3,8,3h3.2h1.5h35c0.5-3.7,0.8-6.4,0.8-8.4c0-2.8-0.4-5.2-1.2-7.2c-1.2-3.4-3.3-6-6.3-7.9
			c-2.6-1.6-5.3-2.4-8.3-2.4c-0.9,0-1.9,0-3.1,0.1l13.3-13.9h-10.4l-18.2,20.5l4.7,4.2c3.2-2.8,6.7-4.2,10.4-4.2
			c3.2,0,5.9,1.1,7.9,3.3c1.8,1.9,2.6,4.4,2.6,7.3c0,0.2,0,0.7-0.1,1.4h-27.3h-1.5h-2.6c-1.5,0-2.6-0.3-3.5-1
			c-0.9-0.8-1.3-2-1.3-3.5v-15.4l-7.9,2.6v12.7c0,3.1-1.5,4.7-4.6,4.7H448h-1.5h-2.6c-1.5,0-2.6-0.3-3.5-1.1
			c-0.9-0.8-1.3-1.9-1.3-3.4v-16.8h-12c-3.9,0-7,1-9.3,3.1c-2.7,2.5-4.1,6.1-4.1,11c0,4.6,1.1,8.1,3.4,10.6
			C419.5,398,422.5,399.3,426.5,399.3 M422.8,379.8c0.9-1.5,2.4-2.2,4.6-2.2h3.8v7.2c0,0.6-0.1,1.2-0.2,2c-0.2,1.3-0.4,2.2-0.6,2.8
			c-0.7,1.6-2,2.5-3.9,2.5c-1.9,0-3.2-0.8-3.9-2.5c-0.5-1.1-0.7-2.7-0.7-4.7C421.9,382.6,422.2,381,422.8,379.8"/>
		<path class="st1" d="M456,406c-0.9,0.9-1.3,1.9-1.3,3c0,1.1,0.4,2.1,1.3,3c0.9,0.8,1.8,1.2,2.9,1.2c1.1,0,2.1-0.4,2.9-1.3
			c0.9-0.8,1.3-1.8,1.3-2.9c0-1.2-0.4-2.2-1.3-3c-0.9-0.8-1.8-1.2-2.9-1.2C457.8,404.8,456.8,405.2,456,406"/>
		<path class="st1" d="M447.8,404.8c-1.1,0-2.1,0.4-2.9,1.2c-0.9,0.9-1.3,1.9-1.3,3c0,1.1,0.4,2.1,1.3,3c0.9,0.8,1.8,1.2,2.9,1.2
			c1.1,0,2.1-0.4,3-1.3c0.9-0.8,1.3-1.8,1.3-2.9c0-1.2-0.4-2.2-1.3-3C449.9,405.2,448.9,404.8,447.8,404.8"/>
		<path class="st1" d="M529,365.2c1.1,0,2.1-0.4,2.9-1.3c0.9-0.8,1.3-1.8,1.3-2.9c0-1.1-0.4-2.1-1.3-3c-0.9-0.8-1.8-1.2-2.9-1.2
			c-1.1,0-2.1,0.4-2.9,1.2c-0.9,0.9-1.3,1.9-1.3,3c0,1.1,0.4,2.1,1.3,3C526.9,364.8,527.9,365.2,529,365.2"/>
		<path class="st1" d="M549,399.3h3.9c3.8,0,6.8-1,9-2.9c2.3-2.1,3.4-4.9,3.4-8.6V359l-7.9,2.6v25.9c0,3.1-1.6,4.7-4.7,4.7H549h-1.5
			h-6.9v-9.7c0-3.7-1.3-6.6-3.8-8.9c-2.1-1.9-4.8-2.9-7.9-2.9c-3.7,0-7,1.4-10.1,4.2v7.4c2.8-3,5.6-4.4,8.3-4.4
			c1.6,0,2.8,0.5,3.9,1.4c1.1,1,1.7,2.4,1.7,4.2v8.6h-14l-4.7,7.2h33.5H549z"/>
		<polygon class="st1" points="580.5,359 572.5,361.6 572.5,399.3 580.5,399.3 		"/>
		<path class="st1" d="M604.4,365.2c1.1,0,2.1-0.4,3-1.3c0.9-0.8,1.3-1.8,1.3-2.9c0-1.1-0.4-2.1-1.3-3c-0.9-0.8-1.9-1.2-3-1.2
			c-1.1,0-2.1,0.4-2.9,1.2c-0.9,0.9-1.3,1.9-1.3,3c0,1.1,0.4,2.1,1.3,3C602.4,364.8,603.3,365.2,604.4,365.2"/>
		<path class="st1" d="M615.5,365.2c1.1,0,2.1-0.4,2.9-1.3c0.9-0.8,1.3-1.8,1.3-2.9c0-1.1-0.4-2.1-1.3-3c-0.9-0.8-1.8-1.2-2.9-1.2
			c-1.1,0-2.1,0.4-2.9,1.2c-0.9,0.9-1.3,1.9-1.3,3c0,1.1,0.4,2.1,1.3,3C613.4,364.8,614.4,365.2,615.5,365.2"/>
		<path class="st1" d="M684.7,413.3c1.1,0,2.1-0.4,2.9-1.3c0.9-0.8,1.3-1.8,1.3-2.9c0-1.2-0.4-2.2-1.3-3c-0.9-0.8-1.8-1.2-2.9-1.2
			c-1.2,0-2.2,0.4-3,1.2c-0.9,0.9-1.3,1.9-1.3,3c0,1.1,0.4,2.1,1.3,3C682.6,412.9,683.6,413.3,684.7,413.3"/>
		<path class="st1" d="M685.3,396.3c2.3,2,5,3,8,3h3.2h1.5h57.7h1.5h3.9c3.8,0,6.8-1,9-2.9c2.3-2.1,3.4-4.9,3.4-8.6V359l-7.9,2.6
			v25.9c0,3.1-1.6,4.6-4.7,4.6h-3.6h-1.5h-7.8v-20l-8,2.6v17.4h-9.2v-17.9l-7.9,2.6v15.3h-9v-15.5l-7.9,2.6v12.9h-8h-1.5h-2.6
			c-1.5,0-2.6-0.3-3.5-1c-0.9-0.8-1.3-2-1.3-3.5v-15.4l-7.9,2.6v12.7c0,3.1-1.5,4.6-4.6,4.6h-3.5h-1.5h-6v-0.7
			c0-2.8-0.3-5.1-0.9-6.9c-1.1-3.4-3.1-6.2-6-8.2c-2.7-1.9-5.6-2.8-8.9-2.8c-0.9,0-1.9,0-3.1,0.1l13.3-14h-10.4l-18.2,20.5l4.7,4.2
			c3.2-2.8,6.6-4.2,10.3-4.2c2.4,0,4.5,0.6,6.3,1.9c2,1.4,3.3,3.4,3.9,5.9c0.2,0.8,0.3,2.2,0.3,4.2h-27.3h-1.5h-2.6
			c-1.5,0-2.6-0.3-3.5-1.1c-0.9-0.8-1.3-1.9-1.3-3.5v-16.8h-12c-3.9,0-7,1-9.3,3.1c-2.7,2.5-4.1,6.1-4.1,11c0,4.6,1.1,8.1,3.4,10.6
			c2.2,2.5,5.3,3.8,9.2,3.8c2.1,0,4.1-0.4,5.7-1.2c1-0.5,2-1.2,3.1-2.2c2.6,2.3,5.3,3.5,8,3.5h3.2h1.5h41.7h1.5h3.9
			C680.2,399.3,682.9,398.3,685.3,396.3 M613,384.8c0,0.6-0.1,1.2-0.2,2c-0.2,1.3-0.4,2.2-0.6,2.8c-0.7,1.6-2,2.5-3.9,2.5
			c-1.9,0-3.2-0.8-3.9-2.5c-0.5-1.1-0.7-2.7-0.7-4.7c0-2.2,0.3-3.9,1-5c0.9-1.5,2.4-2.2,4.6-2.2h3.8V384.8z"/>
		<path class="st1" d="M721.1,368.7c1.1,0,2.1-0.4,2.9-1.3c0.9-0.8,1.3-1.8,1.3-2.9c0-1.2-0.4-2.2-1.3-3c-0.9-0.8-1.8-1.2-2.9-1.2
			c-1.2,0-2.2,0.4-3,1.2c-0.9,0.9-1.3,1.9-1.3,3c0,1.1,0.4,2.1,1.3,3C719,368.3,720,368.7,721.1,368.7"/>
		<path class="st1" d="M727.9,364.5c0,1.1,0.4,2.1,1.3,3c0.9,0.8,1.8,1.2,2.9,1.2c1.1,0,2.1-0.4,3-1.3c0.9-0.8,1.3-1.8,1.3-2.9
			c0-1.2-0.4-2.2-1.3-3c-0.9-0.8-1.9-1.2-3-1.2c-1.1,0-2.1,0.4-2.9,1.2C728.3,362.3,727.9,363.3,727.9,364.5"/>
		<path class="st1" d="M726.4,359.2c1.1,0,2-0.4,2.8-1.2c0.8-0.8,1.2-1.8,1.2-2.8c0-1.1-0.4-2.1-1.2-2.9c-0.8-0.8-1.7-1.2-2.8-1.2
			c-1.1,0-2,0.4-2.8,1.2c-0.8,0.8-1.2,1.8-1.2,2.9s0.4,2,1.2,2.8C724.4,358.8,725.4,359.2,726.4,359.2"/>
		<polygon class="st1" points="780.7,361.6 780.7,399.3 788.6,399.3 788.6,359 		"/>
		<path class="st2" d="M505,430.3c-0.4,0.4-0.6,0.8-0.6,1.3c0,0.5,0.2,0.9,0.6,1.3c0.4,0.4,0.8,0.5,1.3,0.5c0.5,0,0.9-0.2,1.3-0.6
			c0.4-0.4,0.6-0.8,0.6-1.3c0-0.5-0.2-0.9-0.6-1.3c-0.4-0.4-0.8-0.5-1.3-0.5C505.7,429.8,505.3,430,505,430.3"/>
		<path class="st2" d="M500.1,430.3c-0.4,0.4-0.6,0.8-0.6,1.3c0,0.5,0.2,0.9,0.6,1.3c0.4,0.4,0.8,0.5,1.3,0.5c0.5,0,0.9-0.2,1.3-0.6
			c0.4-0.4,0.6-0.8,0.6-1.3c0-0.5-0.2-0.9-0.6-1.3c-0.4-0.4-0.8-0.5-1.3-0.5C500.9,429.8,500.4,430,500.1,430.3"/>
		<path class="st2" d="M511.3,438.6c0,1.4-0.7,2.1-2.1,2.1h-11.1c-1.3,0-2-0.7-2-2v-5.7l-3.5,3v2.8c0,1.5,0.4,2.7,1.2,3.6
			c0.9,1,2.4,1.6,4.3,1.6h11.2c1.7,0,3-0.4,4-1.3c1-0.9,1.5-2.2,1.5-3.8V431l-3.5,1.1V438.6z"/>
		<path class="st2" d="M524.7,443.8h0.7h3.7h0.7h3.7h0.7h1.9c0.7,0,1.2-0.1,1.7-0.2c0.5-0.1,1.1-0.4,1.5-0.8
			c1.1,0.8,2.4,1.2,3.8,1.2c1.6,0,2.8-0.5,3.8-1.4c1.2-1.1,1.8-2.8,1.8-5.1c0-2-0.5-3.5-1.4-4.6c-1-1.1-2.4-1.7-4.2-1.7
			c-1.6,0-2.9,0.5-3.9,1.4c-1.2,1.1-1.8,2.8-1.8,5v0.9c0,1.4-0.7,2.1-2.1,2.1h-1.1h-0.7h-3.7H529h-3.7h-0.7 M525.2,440.7h-0.7h-1.8
			c-0.4,0-0.7-0.1-0.8-0.2c-0.2-0.2-0.3-0.5-0.3-1V426l-3.5,1.1V440c0,1.1,0.3,2,0.9,2.7c0.7,0.8,1.7,1.1,3,1.1h2.6h0.7
			 M541.3,435.4c0.4-0.6,0.9-1,1.7-1c0.7,0,1.3,0.3,1.6,0.9c0.3,0.5,0.5,1.3,0.5,2.3c0,0.8-0.1,1.4-0.3,1.9
			c-0.3,0.8-0.9,1.3-1.8,1.3c-0.7,0-1.3-0.3-1.7-0.9c-0.3-0.5-0.5-1.3-0.5-2.3C540.8,436.7,541,435.9,541.3,435.4"/>
		<path class="st2" d="M614.5,443.8c1.7,0,3-0.4,4-1.3c1-0.9,1.5-2.2,1.5-3.8V426l-3.5,1.1v11.4c0,1.4-0.7,2.1-2.1,2.1h-1.6h-0.7
			h-0.4c-0.8,0-1.4-0.2-1.8-0.5c-0.4-0.3-0.7-0.8-0.8-1.5c-0.2-0.8-0.3-1.4-0.5-1.8c-0.3-0.8-0.8-1.5-1.4-2c-1-0.9-2.2-1.3-3.7-1.3
			c-1.1,0-2.1,0.2-3,0.7c-0.9,0.5-1.6,1.3-2.1,2.3c-0.3,0.5-0.5,1.3-0.6,2.2c-0.1,0.6-0.3,1-0.6,1.4c-0.4,0.4-1,0.6-1.9,0.6h-0.5
			H594h-10v-3.3c0-2.4,0.8-3.6,2.3-3.6c0.5,0,1,0.1,1.4,0.4c0.3,0.2,0.6,0.4,1,0.8l2.4-2.4c-1.4-1.3-3-1.9-4.8-1.9
			c-1.6,0-3,0.5-4.1,1.6c-1.2,1.2-1.8,2.9-1.8,5.2v3.3h-3h-0.7h-1.2c-0.7,0-1.2-0.1-1.5-0.5c-0.4-0.3-0.6-0.9-0.6-1.5V426l-3.5,1.1
			v11.4c0,1.4-0.7,2.1-2,2.1h-1.6h-0.7h-2.3v-2.5c0-1.9-0.3-3.5-1-4.7c-1-1.7-2.6-2.5-4.9-2.5c-1.1,0-2.1,0.3-3,0.8
			c-0.8,0.5-1.5,1.1-2,2c-0.6,1.1-1,2.4-1,3.7c0,2,0.6,3.5,1.8,4.7c1.1,1.1,2.5,1.6,4.1,1.6h2.3c-0.2,0.6-0.5,1.1-0.9,1.4
			c-0.6,0.5-1.4,0.8-2.4,0.8c-1.7,0-3.3-0.5-4.8-1.4l1.6,3.6c0.4,0.2,0.9,0.4,1.4,0.5c0.9,0.2,1.8,0.4,2.6,0.4
			c1.2,0,2.3-0.3,3.2-0.8c0.9-0.5,1.6-1.2,2.1-2.1c0.3-0.5,0.5-1.3,0.7-2.3h2.4h0.7h1.7c1.4,0,2.6-0.4,3.6-1.3
			c1,0.9,2.2,1.3,3.5,1.3h1.4h0.7H594h0.7h0.7c1.2,0,2.2-0.3,3-0.9c0.4,0.7,0.9,1.3,1.4,1.7c1,0.8,2.2,1.2,3.7,1.2
			c1.4,0,2.6-0.4,3.6-1.1c0.6-0.5,1.1-1.1,1.5-2c0.9,0.8,2.1,1.1,3.3,1.1h0.2h0.7H614.5z M560.1,439.1v0.7v0.6v0.3h-2.4
			c-0.6,0-1.1-0.2-1.5-0.6c-0.6-0.6-0.9-1.4-0.9-2.6c0-1,0.2-1.9,0.7-2.5c0.5-0.6,1-0.9,1.7-0.9c0.6,0,1.1,0.2,1.5,0.7
			c0.5,0.5,0.8,1.3,0.9,2.2c0,0.2,0,0.6,0,1.2V439.1z M603.4,442.7c-0.6,0-1-0.2-1.4-0.5c-0.5-0.5-0.8-1.3-0.8-2.5
			c0-0.8,0.2-1.5,0.5-2c0.4-0.7,1-1,1.8-1c0.8,0,1.4,0.3,1.8,1c0.3,0.5,0.5,1.2,0.5,2C605.6,441.7,604.9,442.7,603.4,442.7"/>
		<polygon class="st2" points="626.6,443.8 626.6,426 623.1,427.2 623.1,443.8 		"/>
		<path class="st2" d="M684.8,428.4c0.4-0.4,0.6-0.8,0.6-1.3c0-0.5-0.2-0.9-0.6-1.3c-0.4-0.4-0.8-0.5-1.3-0.5
			c-0.5,0-0.9,0.2-1.3,0.5c-0.4,0.4-0.6,0.8-0.6,1.4c0,0.5,0.2,0.9,0.6,1.3c0.4,0.4,0.8,0.5,1.3,0.5
			C684,428.9,684.4,428.8,684.8,428.4"/>
		<path class="st2" d="M697.5,428c0.4-0.4,0.6-0.8,0.6-1.3c0-0.5-0.2-1-0.6-1.3c-0.4-0.4-0.8-0.5-1.3-0.5c-0.5,0-0.9,0.2-1.3,0.5
			c-0.4,0.4-0.6,0.8-0.6,1.3c0,0.5,0.2,0.9,0.6,1.3c0.4,0.4,0.8,0.5,1.3,0.5C696.7,428.6,697.1,428.4,697.5,428"/>
		<path class="st2" d="M666.1,443.8h0.7h3.7h0.7h21.8h0.7h1.7c1.7,0,3-0.4,4-1.3c1-0.9,1.5-2.2,1.5-3.8V431l-3.5,1.1v6.4
			c0,1.4-0.7,2.1-2.1,2.1h-1.6h-0.7h-2v-0.9c0-1.9-0.4-3.5-1.2-4.9c-0.7-1.1-1.5-2-2.6-2.6c-1.1-0.6-2.3-0.9-3.6-0.9
			c-1.5,0-2.9,0.4-4.2,1.3c-0.8,0.5-1.5,1.2-2.2,1.9v-8.1l-3.5,1.1v13.1h-2.5h-0.7h-3.7h-0.7 M667.7,440.7h-0.7h-3.7h-0.7H659h-0.7
			h-0.9c-0.4,0-0.8,0-1-0.1c-0.5-0.2-0.8-0.6-1-1.3c-0.1-0.4-0.3-1.1-0.4-2.1c-0.1-0.6-0.1-1.1-0.2-1.5c-0.2-1-0.7-1.8-1.3-2.5
			c-1-1.1-2.4-1.6-4.1-1.6h-7.3c-2,0-3.4,0.5-4.4,1.3c-1.1,1-1.7,2.5-1.7,4.5v11.6l3.5-1.1v-9.9c0-1.1,0.2-2,0.7-2.5
			c0.4-0.5,1.1-0.7,2-0.7h2c-0.3,0.8-0.5,1.8-0.5,2.7c0,1.9,0.6,3.5,1.7,4.6c1,1,2.4,1.5,4,1.5c1.7,0,3.1-0.6,4.2-1.7
			c1,1.1,2.4,1.7,4.2,1.7h0.6h0.7h3.7h0.7h3.7h0.7 M651.1,440.1c-0.4,0.4-0.9,0.6-1.7,0.6c-1.5,0-2.3-1-2.3-2.9c0-0.8,0.1-1.5,0.4-2
			c0.4-0.7,1-1,1.8-1c0.8,0,1.5,0.3,1.9,1c0.3,0.5,0.4,1.2,0.4,2C651.7,438.8,651.5,439.6,651.1,440.1 M677.1,440.7
			c0.1-0.6,0.3-1.1,0.4-1.5c0.3-0.8,0.8-1.6,1.5-2.4c1.3-1.5,2.8-2.2,4.5-2.2c1.9,0,3.1,1.2,3.7,3.6c0.1,0.6,0.2,1.4,0.3,2.4H677.1z
			"/>
		<path class="st2" d="M710,425.6c-0.4,0.4-0.6,0.8-0.6,1.3c0,0.5,0.2,0.9,0.6,1.3c0.4,0.4,0.8,0.5,1.3,0.5c0.5,0,0.9-0.2,1.3-0.6
			c0.4-0.4,0.6-0.8,0.6-1.3c0-0.5-0.2-0.9-0.6-1.3c-0.4-0.4-0.8-0.5-1.3-0.5C710.8,425.1,710.4,425.2,710,425.6"/>
		<path class="st2" d="M714.9,425.6c-0.4,0.4-0.6,0.8-0.6,1.3c0,0.5,0.2,0.9,0.6,1.3c0.4,0.4,0.8,0.5,1.3,0.5c0.5,0,0.9-0.2,1.3-0.6
			c0.4-0.4,0.6-0.8,0.6-1.3c0-0.5-0.2-0.9-0.6-1.3c-0.4-0.4-0.8-0.5-1.3-0.5C715.7,425.1,715.3,425.2,714.9,425.6"/>
		<path class="st2" d="M727.1,446.3c-0.5,0-0.9,0.2-1.3,0.5c-0.4,0.4-0.6,0.8-0.6,1.3s0.2,0.9,0.6,1.3c0.4,0.4,0.8,0.5,1.3,0.5
			c0.5,0,0.9-0.2,1.3-0.6c0.4-0.4,0.6-0.8,0.6-1.3c0-0.5-0.2-1-0.6-1.3C728,446.4,727.6,446.3,727.1,446.3"/>
		<path class="st2" d="M733.9,448.1c0-0.5-0.2-1-0.6-1.3c-0.4-0.4-0.8-0.5-1.3-0.5c-0.5,0-0.9,0.2-1.3,0.5c-0.4,0.4-0.6,0.8-0.6,1.3
			c0,0.5,0.2,0.9,0.6,1.3c0.4,0.4,0.8,0.5,1.3,0.5c0.5,0,0.9-0.2,1.3-0.6C733.7,449.1,733.9,448.7,733.9,448.1"/>
		<path class="st2" d="M742,426.2c-0.4,0.4-0.6,0.8-0.6,1.3c0,0.5,0.2,0.9,0.6,1.3c0.4,0.4,0.8,0.5,1.3,0.5c0.5,0,0.9-0.2,1.3-0.6
			c0.4-0.4,0.6-0.8,0.6-1.3c0-0.5-0.2-0.9-0.6-1.3c-0.4-0.4-0.8-0.5-1.3-0.5C742.8,425.7,742.4,425.9,742,426.2"/>
		<path class="st2" d="M752.5,425.6c-0.4,0.4-0.6,0.8-0.6,1.3c0,0.5,0.2,0.9,0.6,1.3c0.4,0.4,0.8,0.5,1.3,0.5c0.5,0,0.9-0.2,1.3-0.6
			c0.4-0.4,0.6-0.8,0.6-1.3c0-0.5-0.2-0.9-0.6-1.3c-0.4-0.4-0.8-0.5-1.3-0.5C753.3,425.1,752.9,425.2,752.5,425.6"/>
		<path class="st2" d="M757.4,425.6c-0.4,0.4-0.6,0.8-0.6,1.3c0,0.5,0.2,0.9,0.6,1.3c0.4,0.4,0.8,0.5,1.3,0.5c0.5,0,0.9-0.2,1.3-0.6
			c0.4-0.4,0.6-0.8,0.6-1.3c0-0.5-0.2-0.9-0.6-1.3c-0.4-0.4-0.8-0.5-1.3-0.5C758.2,425.1,757.7,425.2,757.4,425.6"/>
		<path class="st2" d="M777.6,429.4c0.5,0,0.9-0.2,1.3-0.6c0.4-0.4,0.6-0.8,0.6-1.3s-0.2-0.9-0.6-1.3c-0.4-0.4-0.8-0.5-1.3-0.5
			c-0.5,0-1,0.2-1.3,0.5c-0.4,0.4-0.6,0.8-0.6,1.3s0.2,0.9,0.6,1.3C776.7,429.3,777.1,429.4,777.6,429.4"/>
		<path class="st2" d="M772.7,429.4c0.5,0,0.9-0.2,1.3-0.6c0.4-0.4,0.6-0.8,0.6-1.3s-0.2-0.9-0.6-1.3c-0.4-0.4-0.8-0.5-1.3-0.5
			c-0.5,0-0.9,0.2-1.3,0.5c-0.4,0.4-0.6,0.8-0.6,1.3s0.2,0.9,0.6,1.3C771.8,429.3,772.3,429.4,772.7,429.4"/>
		<path class="st2" d="M722.2,443.8h0.7h3.7h0.7h1.7c1.4,0,2.6-0.4,3.6-1.3c1,0.9,2.2,1.3,3.5,1.3h1.4h0.7h1.7
			c1.4,0,2.6-0.4,3.6-1.3c1,0.9,2.2,1.3,3.5,1.3h1.4h0.7h5.5c0.5,0,1,0,1.5-0.1c0.4,0.1,0.9,0.1,1.5,0.1h5.4h0.7h3.7h0.7h3.7h0.7
			h1.7c1.4,0,2.6-0.4,3.6-1.3c1,0.9,2.2,1.3,3.5,1.3h1.4h0.7h1.7c1.7,0,3-0.4,4-1.3c1-0.9,1.5-2.2,1.5-3.8V426l-3.5,1.1v11.4
			c0,1.4-0.7,2.1-2.1,2.1h-1.6h-0.7h-1.2c-0.7,0-1.2-0.1-1.5-0.4c-0.4-0.4-0.6-0.9-0.6-1.6v-6.8l-3.5,1.1v5.6c0,1.4-0.7,2.1-2,2.1
			h-1.6h-0.7h-3.7h-0.7h-3.7h-0.7h-2.4c0.3-0.4,0.5-0.8,0.6-1.2c0.3-0.7,0.4-1.5,0.4-2.3c0-1.7-0.5-3.1-1.4-4.2
			c-1-1.2-2.4-1.8-4.2-1.8c-1.6,0-2.8,0.5-3.8,1.4c-1.2,1.1-1.7,2.7-1.7,4.7c0,1.2,0.3,2.4,1,3.4h-2.5h-0.7h-1.1
			c-0.7,0-1.2-0.1-1.5-0.4c-0.4-0.4-0.6-0.9-0.6-1.6v-6.8l-3.5,1.1v5.6c0,1.4-0.7,2.1-2,2.1h-1.6h-0.7h-1.2c-0.7,0-1.2-0.1-1.5-0.4
			c-0.4-0.4-0.6-0.9-0.6-1.6v-6.8l-3.5,1.1v5.6c0,1.4-0.7,2.1-2,2.1h-1.6h-0.7h-3.7h-0.7 M722.5,440.7h-0.7h-1.2
			c-0.7,0-1.2-0.1-1.5-0.5c-0.4-0.3-0.6-0.9-0.6-1.5v-7.4h-5.3c-1.7,0-3.1,0.5-4.1,1.4c-1.2,1.1-1.8,2.7-1.8,4.9
			c0,2,0.5,3.6,1.5,4.7c1,1.1,2.3,1.7,4.1,1.7c0.9,0,1.8-0.2,2.5-0.5c0.4-0.2,0.9-0.5,1.4-1c1.2,1,2.3,1.5,3.5,1.5h1.4h0.7
			 M715.1,437.4c0,0.2,0,0.5-0.1,0.9c-0.1,0.6-0.2,1-0.3,1.2c-0.3,0.7-0.9,1.1-1.7,1.1c-0.8,0-1.4-0.4-1.7-1.1
			c-0.2-0.5-0.3-1.2-0.3-2.1c0-1,0.1-1.7,0.4-2.2c0.4-0.7,1-1,2-1h1.7V437.4z M757.6,439.5c-0.4,0.5-0.8,0.9-1.4,1.2
			c-0.1,0-0.3-0.1-0.6-0.3c-0.2-0.2-0.5-0.4-0.7-0.7c-0.5-0.7-0.8-1.6-0.8-2.6c0-0.7,0.2-1.3,0.5-1.8c0.4-0.5,0.9-0.8,1.6-0.8
			c0.7,0,1.2,0.3,1.6,0.7c0.4,0.5,0.6,1.1,0.6,1.9C758.4,437.9,758.1,438.7,757.6,439.5"/>
		<path class="st2" d="M424.5,429.7c1.5,0,2.6,0.3,3.5,0.7l0.8-3.3c-0.7-0.4-2.4-0.8-4.5-0.8c-5.5,0-10,3.5-10,9.7
			c0,5.2,3.3,9.2,9.6,9.2c2.2,0,3.9-0.4,4.7-0.8l-0.6-3.2c-0.8,0.3-2.2,0.6-3.5,0.6c-3.7,0-5.9-2.3-5.9-6
			C418.7,431.7,421.2,429.7,424.5,429.7"/>
		<path class="st2" d="M442.7,426.6l-5.6,18.3h4.3l1.3-4.7h5.2l1.4,4.7h4.5l-5.7-18.3H442.7z M443.3,437.1l1.1-3.9
			c0.3-1.1,0.6-2.4,0.8-3.5h0.1c0.3,1.1,0.6,2.4,0.9,3.5l1.1,3.9H443.3z"/>
		<path class="st2" d="M474.2,428.4c-1.8-1.3-4-2-7.5-2c-2.1,0-4.1,0.1-5.6,0.4v18c1,0.1,2.6,0.3,4.7,0.3c3.6,0,6.5-0.8,8.5-2.4
			c1.8-1.5,3-3.9,3-7.4C477.3,432.1,476.1,429.8,474.2,428.4 M466.7,441.9c-0.5,0-1.1,0-1.4-0.1v-12c0.4-0.1,1-0.2,1.9-0.2
			c3.6,0,5.8,2,5.8,5.8C472.9,439.8,470.4,441.9,466.7,441.9"/>
		<path class="st3" d="M834.2,367.3c-0.7,0-1.3-0.3-1.7-1c-0.5-0.9-0.2-2.1,0.7-2.7c1.3-0.7,2.3-1.7,3.2-2.9
			c0.6-0.9,1.9-1.1,2.7-0.4c0.9,0.6,1.1,1.8,0.4,2.7c-1.2,1.6-2.6,3-4.3,4C834.8,367.2,834.5,367.3,834.2,367.3"/>
	</g>
	<g class="st0">
		<defs>
			<path id="SVGID_5_" d="M922.6,445.8c-1.7,1.7-3.2,3.2-4.6,4.5c-0.8,0.7-0.8,2-0.1,2.8c0.4,0.4,0.9,0.6,1.4,0.6
				c0.5,0,1-0.2,1.3-0.5c1.4-1.4,3-2.9,4.7-4.6c0.7-0.8,0.7-2,0-2.8c-0.4-0.4-0.9-0.5-1.4-0.5C923.5,445.2,923,445.4,922.6,445.8"/>
		</defs>
		<clipPath id="SVGID_6_">
			<use xlink:href="#SVGID_5_"  style="overflow:visible;"/>
		</clipPath>
		<defs>
			<filter id="Adobe_OpacityMaskFilter" filterUnits="userSpaceOnUse" x="917.2" y="445.2" width="8.9" height="8.5">
				<feColorMatrix  type="matrix" values="1 0 0 0 0  0 1 0 0 0  0 0 1 0 0  0 0 0 1 0"/>
			</filter>
		</defs>
		<mask maskUnits="userSpaceOnUse" x="917.2" y="445.2" width="8.9" height="8.5" id="SVGID_7_">
			<g class="st4">
				
					<linearGradient id="SVGID_8_" gradientUnits="userSpaceOnUse" x1="0" y1="768.0001" x2="1" y2="768.0001" gradientTransform="matrix(8.5272 0 0 -8.5272 917.3898 6998.3804)">
					<stop  offset="0" style="stop-color:#FFFFFF"/>
					<stop  offset="1.065560e-08" style="stop-color:#FFFFFF"/>
					<stop  offset="1" style="stop-color:#000000"/>
					<stop  offset="1" style="stop-color:#000000"/>
				</linearGradient>
				<rect x="917.2" y="445.2" class="st5" width="8.9" height="8.5"/>
			</g>
		</mask>
		
			<linearGradient id="SVGID_9_" gradientUnits="userSpaceOnUse" x1="0" y1="768.0001" x2="1" y2="768.0001" gradientTransform="matrix(8.5272 0 0 -8.5272 917.3898 6998.3804)">
			<stop  offset="0" style="stop-color:#0097CC"/>
			<stop  offset="1.065560e-08" style="stop-color:#0097CC"/>
			<stop  offset="1" style="stop-color:#0097CC"/>
			<stop  offset="1" style="stop-color:#0097CC"/>
		</linearGradient>
		<rect x="917.2" y="445.2" class="st6" width="8.9" height="8.5"/>
	</g>
	<g class="st0">
		<defs>
			<path id="SVGID_10_" d="M935.8,349.8c-0.8,0.7-0.9,1.9-0.2,2.7c5.7,6.6,9.8,14.3,12.1,22.9c3.8,14,2.3,28.8-4.3,41.7
				c-0.5,1-0.1,2.1,0.9,2.6c0.3,0.1,0.6,0.2,0.9,0.2c0.7,0,1.4-0.4,1.7-1.1c7-13.8,8.6-29.5,4.5-44.4c-2.5-9.1-6.8-17.3-12.9-24.4
				c-0.4-0.4-0.9-0.7-1.5-0.7C936.7,349.3,936.2,349.5,935.8,349.8"/>
		</defs>
		<clipPath id="SVGID_11_">
			<use xlink:href="#SVGID_10_"  style="overflow:visible;"/>
		</clipPath>
		<defs>
			<filter id="Adobe_OpacityMaskFilter_1_" filterUnits="userSpaceOnUse" x="934.9" y="349.3" width="20.6" height="70.6">
				<feColorMatrix  type="matrix" values="1 0 0 0 0  0 1 0 0 0  0 0 1 0 0  0 0 0 1 0"/>
			</filter>
		</defs>
		<mask maskUnits="userSpaceOnUse" x="934.9" y="349.3" width="20.6" height="70.6" id="SVGID_12_">
			<g class="st7">
				
					<linearGradient id="SVGID_13_" gradientUnits="userSpaceOnUse" x1="0" y1="767.9872" x2="1" y2="767.9872" gradientTransform="matrix(0 -63.9809 -63.9809 0 50081.7383 414.2208)">
					<stop  offset="0" style="stop-color:#000000"/>
					<stop  offset="5.967120e-07" style="stop-color:#000000"/>
					<stop  offset="7.598628e-02" style="stop-color:#2F2F2F"/>
					<stop  offset="0.1662" style="stop-color:#5F5F5F"/>
					<stop  offset="0.2616" style="stop-color:#8A8A8A"/>
					<stop  offset="0.3605" style="stop-color:#AEAEAE"/>
					<stop  offset="0.4637" style="stop-color:#CCCCCC"/>
					<stop  offset="0.5729" style="stop-color:#E2E2E2"/>
					<stop  offset="0.6904" style="stop-color:#F2F2F2"/>
					<stop  offset="0.8227" style="stop-color:#FCFCFC"/>
					<stop  offset="1" style="stop-color:#FFFFFF"/>
				</linearGradient>
				<rect x="934.9" y="349.3" class="st8" width="20.6" height="70.6"/>
			</g>
		</mask>
		
			<linearGradient id="SVGID_14_" gradientUnits="userSpaceOnUse" x1="0" y1="767.9872" x2="1" y2="767.9872" gradientTransform="matrix(0 -63.9809 -63.9809 0 50081.7383 414.2208)">
			<stop  offset="0" style="stop-color:#643695"/>
			<stop  offset="5.967120e-07" style="stop-color:#643695"/>
			<stop  offset="1" style="stop-color:#643695"/>
		</linearGradient>
		<rect x="934.9" y="349.3" class="st9" width="20.6" height="70.6"/>
	</g>
	<g class="st0">
		<defs>
			<path id="SVGID_15_" d="M929.3,425.7c-5.6,8-12.2,15.4-19.4,21.8c-0.8,0.7-0.9,1.9-0.2,2.8c0.4,0.4,0.9,0.7,1.5,0.7
				c0.5,0,0.9-0.2,1.3-0.5c7.5-6.6,14.2-14.2,20-22.5c0.6-0.9,0.4-2.1-0.5-2.7c-0.3-0.2-0.7-0.4-1.1-0.4
				C930.3,424.9,929.7,425.2,929.3,425.7"/>
		</defs>
		<clipPath id="SVGID_16_">
			<use xlink:href="#SVGID_15_"  style="overflow:visible;"/>
		</clipPath>
		<defs>
			<filter id="Adobe_OpacityMaskFilter_2_" filterUnits="userSpaceOnUse" x="909" y="424.9" width="24.1" height="26">
				<feColorMatrix  type="matrix" values="1 0 0 0 0  0 1 0 0 0  0 0 1 0 0  0 0 0 1 0"/>
			</filter>
		</defs>
		<mask maskUnits="userSpaceOnUse" x="909" y="424.9" width="24.1" height="26" id="SVGID_17_">
			<g class="st10">
				
					<linearGradient id="SVGID_18_" gradientUnits="userSpaceOnUse" x1="0" y1="768" x2="1" y2="768" gradientTransform="matrix(23.6345 0 0 -23.6345 909.2073 18589.2051)">
					<stop  offset="0" style="stop-color:#000000"/>
					<stop  offset="5.967120e-07" style="stop-color:#000000"/>
					<stop  offset="7.598628e-02" style="stop-color:#2F2F2F"/>
					<stop  offset="0.1662" style="stop-color:#5F5F5F"/>
					<stop  offset="0.2616" style="stop-color:#8A8A8A"/>
					<stop  offset="0.3605" style="stop-color:#AEAEAE"/>
					<stop  offset="0.4637" style="stop-color:#CCCCCC"/>
					<stop  offset="0.5729" style="stop-color:#E2E2E2"/>
					<stop  offset="0.6904" style="stop-color:#F2F2F2"/>
					<stop  offset="0.8227" style="stop-color:#FCFCFC"/>
					<stop  offset="1" style="stop-color:#FFFFFF"/>
				</linearGradient>
				<rect x="909" y="424.9" class="st11" width="24.1" height="26"/>
			</g>
		</mask>
		
			<linearGradient id="SVGID_19_" gradientUnits="userSpaceOnUse" x1="0" y1="768" x2="1" y2="768" gradientTransform="matrix(23.6345 0 0 -23.6345 909.2073 18589.2051)">
			<stop  offset="0" style="stop-color:#643695"/>
			<stop  offset="5.967120e-07" style="stop-color:#643695"/>
			<stop  offset="1" style="stop-color:#643695"/>
		</linearGradient>
		<rect x="909" y="424.9" class="st12" width="24.1" height="26"/>
	</g>
	<g class="st0">
		<defs>
			<path id="SVGID_20_" d="M922.8,348.2c-0.7,0.8-0.5,2.1,0.3,2.7c8.5,6.7,14.5,15.9,17.3,26.5c3.6,13.2,1.8,26.9-5,38.7
				c-0.7,1.1-1.3,2.3-2,3.4c-0.6,0.9-0.3,2.1,0.6,2.7c0.3,0.2,0.7,0.3,1,0.3c0.7,0,1.3-0.3,1.7-0.9c0.7-1.2,1.4-2.3,2.1-3.5
				c7.3-12.7,9.2-27.5,5.4-41.7c-3.1-11.4-9.5-21.3-18.7-28.5c-0.4-0.3-0.8-0.4-1.2-0.4C923.7,347.4,923.1,347.7,922.8,348.2"/>
		</defs>
		<clipPath id="SVGID_21_">
			<use xlink:href="#SVGID_20_"  style="overflow:visible;"/>
		</clipPath>
		<defs>
			<filter id="Adobe_OpacityMaskFilter_3_" filterUnits="userSpaceOnUse" x="922.1" y="347.4" width="25.9" height="75">
				<feColorMatrix  type="matrix" values="1 0 0 0 0  0 1 0 0 0  0 0 1 0 0  0 0 0 1 0"/>
			</filter>
		</defs>
		<mask maskUnits="userSpaceOnUse" x="922.1" y="347.4" width="25.9" height="75" id="SVGID_22_">
			<g class="st13">
				
					<linearGradient id="SVGID_23_" gradientUnits="userSpaceOnUse" x1="0" y1="768" x2="1" y2="768" gradientTransform="matrix(23.7733 0 0 -23.7733 922.3411 18642.8711)">
					<stop  offset="0" style="stop-color:#000000"/>
					<stop  offset="5.967120e-07" style="stop-color:#000000"/>
					<stop  offset="7.598628e-02" style="stop-color:#2F2F2F"/>
					<stop  offset="0.1662" style="stop-color:#5F5F5F"/>
					<stop  offset="0.2616" style="stop-color:#8A8A8A"/>
					<stop  offset="0.3605" style="stop-color:#AEAEAE"/>
					<stop  offset="0.4637" style="stop-color:#CCCCCC"/>
					<stop  offset="0.5729" style="stop-color:#E2E2E2"/>
					<stop  offset="0.6904" style="stop-color:#F2F2F2"/>
					<stop  offset="0.8227" style="stop-color:#FCFCFC"/>
					<stop  offset="1" style="stop-color:#FFFFFF"/>
				</linearGradient>
				<rect x="922.1" y="347.4" class="st14" width="25.9" height="75"/>
			</g>
		</mask>
		
			<linearGradient id="SVGID_24_" gradientUnits="userSpaceOnUse" x1="0" y1="768" x2="1" y2="768" gradientTransform="matrix(23.7733 0 0 -23.7733 922.3412 18642.873)">
			<stop  offset="0" style="stop-color:#643695"/>
			<stop  offset="5.967120e-07" style="stop-color:#643695"/>
			<stop  offset="1" style="stop-color:#643695"/>
		</linearGradient>
		<rect x="922.1" y="347.4" class="st15" width="25.9" height="75"/>
	</g>
	<g class="st0">
		<defs>
			<path id="SVGID_25_" d="M869,340.6c-10.7,4.7-19.5,12.6-25.3,22.8c-2.5,4.4-6.5,7.5-11.4,8.8c-1.7,0.5-3.4,0.7-5.1,0.7
				c-0.1,0-0.2,0-0.2,0c-1.1,0-1.9,0.9-1.9,1.9c0,1.1,0.9,2,1.9,2c0.1,0,0.2,0,0.3,0c2.1,0,4.1-0.3,6.2-0.8
				c5.9-1.6,10.7-5.4,13.7-10.6c5.4-9.4,13.6-16.8,23.5-21.2c1-0.4,1.4-1.6,1-2.6c-0.3-0.7-1-1.2-1.8-1.2
				C869.5,340.4,869.2,340.5,869,340.6"/>
		</defs>
		<clipPath id="SVGID_26_">
			<use xlink:href="#SVGID_25_"  style="overflow:visible;"/>
		</clipPath>
		<defs>
			<filter id="Adobe_OpacityMaskFilter_4_" filterUnits="userSpaceOnUse" x="824.9" y="340.4" width="47.1" height="36.3">
				<feColorMatrix  type="matrix" values="1 0 0 0 0  0 1 0 0 0  0 0 1 0 0  0 0 0 1 0"/>
			</filter>
		</defs>
		<mask maskUnits="userSpaceOnUse" x="824.9" y="340.4" width="47.1" height="36.3" id="SVGID_27_">
			<g class="st16">
				
					<linearGradient id="SVGID_28_" gradientUnits="userSpaceOnUse" x1="-2.465734e-04" y1="768" x2="0.9998" y2="768" gradientTransform="matrix(46.7838 0 0 -46.7838 824.9245 36288.582)">
					<stop  offset="0" style="stop-color:#000000"/>
					<stop  offset="5.967120e-07" style="stop-color:#000000"/>
					<stop  offset="7.598628e-02" style="stop-color:#2F2F2F"/>
					<stop  offset="0.1662" style="stop-color:#5F5F5F"/>
					<stop  offset="0.2616" style="stop-color:#8A8A8A"/>
					<stop  offset="0.3605" style="stop-color:#AEAEAE"/>
					<stop  offset="0.4637" style="stop-color:#CCCCCC"/>
					<stop  offset="0.5729" style="stop-color:#E2E2E2"/>
					<stop  offset="0.6904" style="stop-color:#F2F2F2"/>
					<stop  offset="0.8227" style="stop-color:#FCFCFC"/>
					<stop  offset="1" style="stop-color:#FFFFFF"/>
				</linearGradient>
				<rect x="824.9" y="340.4" class="st17" width="47.1" height="36.3"/>
			</g>
		</mask>
		
			<linearGradient id="SVGID_29_" gradientUnits="userSpaceOnUse" x1="-2.465734e-04" y1="768" x2="0.9998" y2="768" gradientTransform="matrix(46.7838 0 0 -46.7838 824.9246 36288.5859)">
			<stop  offset="0" style="stop-color:#643695"/>
			<stop  offset="5.967120e-07" style="stop-color:#643695"/>
			<stop  offset="1" style="stop-color:#643695"/>
		</linearGradient>
		<rect x="824.9" y="340.4" class="st18" width="47.1" height="36.3"/>
	</g>
	<g class="st0">
		<defs>
			<rect id="SVGID_30_" width="1366" height="768"/>
		</defs>
		<clipPath id="SVGID_31_">
			<use xlink:href="#SVGID_30_"  style="overflow:visible;"/>
		</clipPath>
		<path class="st19" d="M902.8,448.1c-0.6,0-1.1-0.2-1.5-0.7c-0.7-0.8-0.6-2.1,0.3-2.7c10.9-8.9,20.1-19.8,27.3-32.3
			c5.8-10.1,7.3-21.8,4.3-33c-3-11.2-10.2-20.5-20.2-26.3c-1.3-0.7-2.6-1.4-3.8-1.9c-1-0.4-1.4-1.6-1-2.6c0.4-1,1.6-1.4,2.6-1
			c1.3,0.6,2.7,1.3,4.1,2.1c10.9,6.3,18.8,16.5,22.1,28.6c3.3,12.2,1.6,25-4.6,35.9c-7.4,12.9-16.9,24.1-28.2,33.4
			C903.7,448,903.3,448.1,902.8,448.1"/>
	</g>
	<g class="st0">
		<defs>
			<path id="SVGID_32_" d="M850.2,367.2c-1.2,2.1-2.7,4-4.4,5.7c-0.8,0.8-0.8,2,0,2.8c0.4,0.4,0.9,0.6,1.4,0.6c0.5,0,1-0.2,1.4-0.6
				c1.9-1.9,3.6-4.1,5-6.5c9.3-16.1,28.4-24.7,46.6-20.9c0.7,0.4,1.6,0.2,2.2-0.4c0.8-0.8,0.7-2,0-2.8l-0.4-0.4l-0.6-0.1
				c-3.3-0.7-6.6-1.1-9.9-1.1C874.8,343.4,858.7,352.4,850.2,367.2"/>
		</defs>
		<clipPath id="SVGID_33_">
			<use xlink:href="#SVGID_32_"  style="overflow:visible;"/>
		</clipPath>
		<defs>
			<filter id="Adobe_OpacityMaskFilter_5_" filterUnits="userSpaceOnUse" x="832" y="320.2" width="84.3" height="79.2">
				<feColorMatrix  type="matrix" values="1 0 0 0 0  0 1 0 0 0  0 0 1 0 0  0 0 0 1 0"/>
			</filter>
		</defs>
		<mask maskUnits="userSpaceOnUse" x="832" y="320.2" width="84.3" height="79.2" id="SVGID_34_">
			<g class="st20">
				
					<linearGradient id="SVGID_35_" gradientUnits="userSpaceOnUse" x1="0" y1="768.0839" x2="1" y2="768.0839" gradientTransform="matrix(-48.477 24.2385 24.2385 48.477 -17717.5645 -36887.3867)">
					<stop  offset="0" style="stop-color:#000000"/>
					<stop  offset="5.967120e-07" style="stop-color:#000000"/>
					<stop  offset="7.598628e-02" style="stop-color:#2F2F2F"/>
					<stop  offset="0.1662" style="stop-color:#5F5F5F"/>
					<stop  offset="0.2616" style="stop-color:#8A8A8A"/>
					<stop  offset="0.3605" style="stop-color:#AEAEAE"/>
					<stop  offset="0.4637" style="stop-color:#CCCCCC"/>
					<stop  offset="0.5729" style="stop-color:#E2E2E2"/>
					<stop  offset="0.6904" style="stop-color:#F2F2F2"/>
					<stop  offset="0.8227" style="stop-color:#FCFCFC"/>
					<stop  offset="1" style="stop-color:#FFFFFF"/>
				</linearGradient>
				<polygon class="st21" points="916.3,369.6 856.7,399.4 832,350 891.5,320.2 				"/>
			</g>
		</mask>
		
			<linearGradient id="SVGID_36_" gradientUnits="userSpaceOnUse" x1="0" y1="768.0839" x2="1" y2="768.0839" gradientTransform="matrix(-48.477 24.2385 24.2385 48.477 -17717.5645 -36887.3867)">
			<stop  offset="0" style="stop-color:#643695"/>
			<stop  offset="5.967120e-07" style="stop-color:#643695"/>
			<stop  offset="1" style="stop-color:#643695"/>
		</linearGradient>
		<polygon class="st22" points="916.3,369.6 856.7,399.4 832,350 891.5,320.2 		"/>
	</g>
	<g class="st0">
		<defs>
			<path id="SVGID_37_" d="M836.5,378.8c-0.7,0.3-1.5,0.5-2.3,0.7c-2.6,0.7-5.2,1-7.9,0.9c-1.1,0-2,0.8-2,1.9c0,1.1,0.8,2,1.9,2
				c0.3,0,0.7,0,1,0c2.7,0,5.4-0.4,8-1.1c0.9-0.2,1.8-0.5,2.6-0.8c1-0.4,1.5-1.5,1.2-2.5c-0.3-0.8-1-1.3-1.8-1.3
				C836.9,378.7,836.7,378.7,836.5,378.8"/>
		</defs>
		<clipPath id="SVGID_38_">
			<use xlink:href="#SVGID_37_"  style="overflow:visible;"/>
		</clipPath>
		<defs>
			<filter id="Adobe_OpacityMaskFilter_6_" filterUnits="userSpaceOnUse" x="824.3" y="378.7" width="15.1" height="5.7">
				<feColorMatrix  type="matrix" values="1 0 0 0 0  0 1 0 0 0  0 0 1 0 0  0 0 0 1 0"/>
			</filter>
		</defs>
		<mask maskUnits="userSpaceOnUse" x="824.3" y="378.7" width="15.1" height="5.7" id="SVGID_39_">
			<g class="st23">
				
					<linearGradient id="SVGID_40_" gradientUnits="userSpaceOnUse" x1="0" y1="768" x2="1" y2="768" gradientTransform="matrix(14.7667 0 0 -14.7667 824.3522 11722.3125)">
					<stop  offset="0" style="stop-color:#FFFFFF"/>
					<stop  offset="1.065560e-08" style="stop-color:#FFFFFF"/>
					<stop  offset="1" style="stop-color:#000000"/>
					<stop  offset="1" style="stop-color:#000000"/>
				</linearGradient>
				<rect x="824.3" y="378.7" class="st24" width="15.1" height="5.7"/>
			</g>
		</mask>
		
			<linearGradient id="SVGID_41_" gradientUnits="userSpaceOnUse" x1="0" y1="768" x2="1" y2="768" gradientTransform="matrix(14.7667 0 0 -14.7667 824.3522 11722.3125)">
			<stop  offset="0" style="stop-color:#0097CC"/>
			<stop  offset="1.065560e-08" style="stop-color:#0097CC"/>
			<stop  offset="1" style="stop-color:#0097CC"/>
			<stop  offset="1" style="stop-color:#0097CC"/>
		</linearGradient>
		<rect x="824.3" y="378.7" class="st25" width="15.1" height="5.7"/>
	</g>
	<g class="st0">
		<defs>
			<path id="SVGID_42_" d="M922.3,408.6c-6.1,10.6-13.7,19.9-22.7,27.8c-0.8,0.7-0.9,1.9-0.2,2.8c0.4,0.4,0.9,0.7,1.5,0.7
				c0.5,0,0.9-0.2,1.3-0.5c9.3-8.2,17.2-17.9,23.5-28.8c0.5-0.9,0.2-2.1-0.7-2.7c-0.3-0.2-0.6-0.3-1-0.3
				C923.3,407.6,922.7,407.9,922.3,408.6"/>
		</defs>
		<clipPath id="SVGID_43_">
			<use xlink:href="#SVGID_42_"  style="overflow:visible;"/>
		</clipPath>
		<defs>
			<filter id="Adobe_OpacityMaskFilter_7_" filterUnits="userSpaceOnUse" x="898.8" y="407.6" width="27.5" height="32.2">
				<feColorMatrix  type="matrix" values="1 0 0 0 0  0 1 0 0 0  0 0 1 0 0  0 0 0 1 0"/>
			</filter>
		</defs>
		<mask maskUnits="userSpaceOnUse" x="898.8" y="407.6" width="27.5" height="32.2" id="SVGID_44_">
			<g class="st26">
				
					<linearGradient id="SVGID_45_" gradientUnits="userSpaceOnUse" x1="0" y1="768" x2="1" y2="768" gradientTransform="matrix(26.979 0 0 -26.979 898.9853 21143.5547)">
					<stop  offset="0" style="stop-color:#000000"/>
					<stop  offset="5.967120e-07" style="stop-color:#000000"/>
					<stop  offset="7.598628e-02" style="stop-color:#2F2F2F"/>
					<stop  offset="0.1662" style="stop-color:#5F5F5F"/>
					<stop  offset="0.2616" style="stop-color:#8A8A8A"/>
					<stop  offset="0.3605" style="stop-color:#AEAEAE"/>
					<stop  offset="0.4637" style="stop-color:#CCCCCC"/>
					<stop  offset="0.5729" style="stop-color:#E2E2E2"/>
					<stop  offset="0.6904" style="stop-color:#F2F2F2"/>
					<stop  offset="0.8227" style="stop-color:#FCFCFC"/>
					<stop  offset="1" style="stop-color:#FFFFFF"/>
				</linearGradient>
				<rect x="898.8" y="407.6" class="st27" width="27.5" height="32.2"/>
			</g>
		</mask>
		
			<linearGradient id="SVGID_46_" gradientUnits="userSpaceOnUse" x1="0" y1="768" x2="1" y2="768" gradientTransform="matrix(26.979 0 0 -26.979 898.9852 21143.5508)">
			<stop  offset="0" style="stop-color:#643695"/>
			<stop  offset="5.967120e-07" style="stop-color:#643695"/>
			<stop  offset="1" style="stop-color:#643695"/>
		</linearGradient>
		<rect x="898.8" y="407.6" class="st28" width="27.5" height="32.2"/>
	</g>
	<g class="st0">
		<defs>
			<rect id="SVGID_47_" width="1366" height="768"/>
		</defs>
		<clipPath id="SVGID_48_">
			<use xlink:href="#SVGID_47_"  style="overflow:visible;"/>
		</clipPath>
		<path class="st29" d="M927.8,402.4c-0.2,0-0.3,0-0.5-0.1c-1-0.3-1.7-1.3-1.4-2.4c1.6-6,1.6-12.5-0.1-18.6
			c-2.5-9.2-8.4-17-16.7-21.7c-1.4-0.8-2.8-1.5-4.3-2.1c-16.6-6.8-35.8-0.2-44.7,15.3c-5.1,8.8-13.2,15.1-22.9,17.7
			c-3.6,1-7.3,1.4-10.9,1.3c-1.1,0-1.9-0.9-1.9-2c0-1.1,0.9-1.9,1.9-1.9c0,0,0,0,0.1,0c3.3,0.1,6.6-0.3,9.8-1.2
			c8.7-2.4,16-8,20.6-15.9c9.9-17.2,31.2-24.5,49.6-17c1.6,0.7,3.2,1.5,4.7,2.3c9.2,5.3,15.8,13.8,18.5,24.1
			c1.8,6.8,1.9,13.9,0.1,20.6C929.4,401.8,928.6,402.4,927.8,402.4"/>
		<path class="st29" d="M898.3,432.6h-0.8c-1.1,0-2-0.9-2-1.9c0-0.6,0.3-1.2,0.8-1.6c7.6-7,14.1-15.2,19.4-24.3
			c3.8-6.5,4.7-14.2,2.8-21.5c-2-7.3-6.7-13.4-13.2-17.1c-1.2-0.7-2.3-1.2-3.4-1.6c-13.1-5.4-28.2-0.2-35.3,12.1
			c-6,10.5-15.8,18-27.5,21.2c-3.4,0.9-6.8,1.5-10.3,1.6c-1.1,0.1-2-0.8-2-1.9c0-1.1,0.8-2,1.9-2c3.2-0.1,6.3-0.6,9.4-1.5
			c10.7-2.9,19.6-9.8,25.2-19.4c8-14,25.3-19.9,40.1-13.8c1.2,0.5,2.5,1.1,3.8,1.9c7.4,4.3,12.8,11.2,15,19.5
			c2.2,8.3,1.1,17-3.1,24.4c-5.5,9.5-12.3,18.1-20.3,25.4L898.3,432.6z"/>
	</g>
	<g class="st0">
		<defs>
			<path id="SVGID_49_" d="M881,368.3c-1,0.4-1.4,1.6-1,2.6c0.4,1,1.6,1.4,2.6,1c5.2-2.4,11.2-2.5,16.5-0.3c0.9,0.4,1.7,0.8,2.5,1.2
				c4.8,2.7,8.2,7.2,9.7,12.5c1.4,5.3,0.7,10.9-2,15.7c-5.6,9.8-12.8,18.4-21.3,25.5c-0.8,0.7-0.9,1.9-0.2,2.7
				c0.4,0.5,0.9,0.7,1.5,0.7c0.4,0,0.9-0.1,1.3-0.5c8.9-7.4,16.4-16.4,22.2-26.6c3.3-5.7,4.1-12.4,2.4-18.7
				c-1.7-6.4-5.8-11.7-11.5-14.9c-0.9-0.5-1.8-1-2.9-1.4c-3-1.2-6.1-1.8-9.3-1.8C887.8,366.1,884.3,366.8,881,368.3"/>
		</defs>
		<clipPath id="SVGID_50_">
			<use xlink:href="#SVGID_49_"  style="overflow:visible;"/>
		</clipPath>
		<defs>
			<filter id="Adobe_OpacityMaskFilter_8_" filterUnits="userSpaceOnUse" x="864.1" y="357.1" width="68.2" height="81.9">
				<feColorMatrix  type="matrix" values="1 0 0 0 0  0 1 0 0 0  0 0 1 0 0  0 0 0 1 0"/>
			</filter>
		</defs>
		<mask maskUnits="userSpaceOnUse" x="864.1" y="357.1" width="68.2" height="81.9" id="SVGID_51_">
			<g class="st30">
				
					<linearGradient id="SVGID_52_" gradientUnits="userSpaceOnUse" x1="0" y1="767.9276" x2="1" y2="767.9276" gradientTransform="matrix(15.0846 -58.1168 -58.1168 -15.0846 45519.457 12013.5518)">
					<stop  offset="0" style="stop-color:#000000"/>
					<stop  offset="5.967120e-07" style="stop-color:#000000"/>
					<stop  offset="7.598628e-02" style="stop-color:#2F2F2F"/>
					<stop  offset="0.1662" style="stop-color:#5F5F5F"/>
					<stop  offset="0.2616" style="stop-color:#8A8A8A"/>
					<stop  offset="0.3605" style="stop-color:#AEAEAE"/>
					<stop  offset="0.4637" style="stop-color:#CCCCCC"/>
					<stop  offset="0.5729" style="stop-color:#E2E2E2"/>
					<stop  offset="0.6904" style="stop-color:#F2F2F2"/>
					<stop  offset="0.8227" style="stop-color:#FCFCFC"/>
					<stop  offset="1" style="stop-color:#FFFFFF"/>
				</linearGradient>
				<polygon class="st31" points="864.1,426 881.9,357.1 932.3,370.1 914.4,439 				"/>
			</g>
		</mask>
		
			<linearGradient id="SVGID_53_" gradientUnits="userSpaceOnUse" x1="0" y1="767.9276" x2="1" y2="767.9276" gradientTransform="matrix(15.0846 -58.1168 -58.1168 -15.0846 45519.457 12013.5527)">
			<stop  offset="0" style="stop-color:#643695"/>
			<stop  offset="5.967120e-07" style="stop-color:#643695"/>
			<stop  offset="1" style="stop-color:#643695"/>
		</linearGradient>
		<polygon class="st32" points="864.1,426 881.9,357.1 932.3,370.1 914.4,439 		"/>
	</g>
	<g class="st0">
		<defs>
			<rect id="SVGID_54_" width="1366" height="768"/>
		</defs>
		<clipPath id="SVGID_55_">
			<use xlink:href="#SVGID_54_"  style="overflow:visible;"/>
		</clipPath>
		<path class="st33" d="M836.2,406.2c-0.9,0-1.8-0.7-1.9-1.6c-0.2-1.1,0.5-2.1,1.6-2.2c1.3-0.2,2.7-0.5,4.3-0.9
			c12.6-3.4,23.2-11.6,29.7-22.9c0.5-0.9,1.7-1.3,2.7-0.7c0.9,0.5,1.3,1.7,0.7,2.7c-7.1,12.3-18.5,21.1-32.1,24.7
			c-1.7,0.5-3.2,0.8-4.6,1C836.4,406.2,836.3,406.2,836.2,406.2"/>
		<path class="st33" d="M880.4,427.2c-0.6,0-1.2-0.3-1.6-0.8c-0.6-0.9-0.5-2.1,0.4-2.7c9.5-7.1,17.4-16,23.4-26.5
			c0.5-0.9,1.7-1.3,2.7-0.7c0.9,0.5,1.3,1.7,0.7,2.7c-6.3,10.9-14.5,20.2-24.5,27.6C881.2,427.1,880.8,427.2,880.4,427.2"/>
	</g>
	<g class="st0">
		<defs>
			<path id="SVGID_56_" d="M876.4,382.2c-1.5,2.7-3.3,5.2-5.2,7.6c-0.7,0.8-0.6,2.1,0.3,2.7c0.4,0.3,0.8,0.4,1.2,0.4
				c0.6,0,1.1-0.2,1.5-0.7c2.1-2.5,3.9-5.3,5.6-8.1c3.3-5.7,10.3-8.1,16.4-5.6c0.5,0.2,1,0.5,1.6,0.8c3,1.7,5.2,4.6,6.1,8
				c0.3,1,1.4,1.7,2.4,1.4c1-0.3,1.7-1.4,1.4-2.4c-1.2-4.4-4-8.1-7.9-10.3c-0.7-0.4-1.3-0.7-2.1-1c-2.1-0.9-4.3-1.3-6.4-1.3
				C885.3,373.7,879.5,376.8,876.4,382.2"/>
		</defs>
		<clipPath id="SVGID_57_">
			<use xlink:href="#SVGID_56_"  style="overflow:visible;"/>
		</clipPath>
		<defs>
			<filter id="Adobe_OpacityMaskFilter_9_" filterUnits="userSpaceOnUse" x="870.5" y="373.7" width="37.5" height="19.4">
				<feColorMatrix  type="matrix" values="1 0 0 0 0  0 1 0 0 0  0 0 1 0 0  0 0 0 1 0"/>
			</filter>
		</defs>
		<mask maskUnits="userSpaceOnUse" x="870.5" y="373.7" width="37.5" height="19.4" id="SVGID_58_">
			<g class="st34">
				
					<linearGradient id="SVGID_59_" gradientUnits="userSpaceOnUse" x1="0" y1="768" x2="1" y2="768" gradientTransform="matrix(36.9951 0 0 -36.9951 870.7686 28795.5918)">
					<stop  offset="0" style="stop-color:#000000"/>
					<stop  offset="5.967120e-07" style="stop-color:#000000"/>
					<stop  offset="7.598628e-02" style="stop-color:#2F2F2F"/>
					<stop  offset="0.1662" style="stop-color:#5F5F5F"/>
					<stop  offset="0.2616" style="stop-color:#8A8A8A"/>
					<stop  offset="0.3605" style="stop-color:#AEAEAE"/>
					<stop  offset="0.4637" style="stop-color:#CCCCCC"/>
					<stop  offset="0.5729" style="stop-color:#E2E2E2"/>
					<stop  offset="0.6904" style="stop-color:#F2F2F2"/>
					<stop  offset="0.8227" style="stop-color:#FCFCFC"/>
					<stop  offset="1" style="stop-color:#FFFFFF"/>
				</linearGradient>
				<rect x="870.5" y="373.7" class="st35" width="37.5" height="19.4"/>
			</g>
		</mask>
		
			<linearGradient id="SVGID_60_" gradientUnits="userSpaceOnUse" x1="0" y1="768" x2="1" y2="768" gradientTransform="matrix(36.9951 0 0 -36.9951 870.7686 28795.5918)">
			<stop  offset="0" style="stop-color:#643695"/>
			<stop  offset="5.967120e-07" style="stop-color:#643695"/>
			<stop  offset="1" style="stop-color:#643695"/>
		</linearGradient>
		<rect x="870.5" y="373.7" class="st36" width="37.5" height="19.4"/>
	</g>
	<g class="st0">
		<defs>
			<path id="SVGID_61_" d="M863.2,397.9c-2.9,2.4-6.2,4.5-9.5,6.3c-1,0.5-1.3,1.7-0.8,2.6c0.3,0.7,1,1,1.7,1c0.3,0,0.6-0.1,0.9-0.2
				c3.6-1.9,7-4.1,10.2-6.7c0.8-0.7,1-1.9,0.3-2.7c-0.4-0.5-0.9-0.7-1.5-0.7C864,397.5,863.5,397.6,863.2,397.9"/>
		</defs>
		<clipPath id="SVGID_62_">
			<use xlink:href="#SVGID_61_"  style="overflow:visible;"/>
		</clipPath>
		<defs>
			<filter id="Adobe_OpacityMaskFilter_10_" filterUnits="userSpaceOnUse" x="852.3" y="397.5" width="14.3" height="10.4">
				<feColorMatrix  type="matrix" values="1 0 0 0 0  0 1 0 0 0  0 0 1 0 0  0 0 0 1 0"/>
			</filter>
		</defs>
		<mask maskUnits="userSpaceOnUse" x="852.3" y="397.5" width="14.3" height="10.4" id="SVGID_63_">
			<g class="st37">
				
					<linearGradient id="SVGID_64_" gradientUnits="userSpaceOnUse" x1="0" y1="768.0001" x2="1" y2="768.0001" gradientTransform="matrix(13.7657 0 0 -13.7657 852.5914 10974.7334)">
					<stop  offset="0" style="stop-color:#000000"/>
					<stop  offset="5.967120e-07" style="stop-color:#000000"/>
					<stop  offset="7.598628e-02" style="stop-color:#2F2F2F"/>
					<stop  offset="0.1662" style="stop-color:#5F5F5F"/>
					<stop  offset="0.2616" style="stop-color:#8A8A8A"/>
					<stop  offset="0.3605" style="stop-color:#AEAEAE"/>
					<stop  offset="0.4637" style="stop-color:#CCCCCC"/>
					<stop  offset="0.5729" style="stop-color:#E2E2E2"/>
					<stop  offset="0.6904" style="stop-color:#F2F2F2"/>
					<stop  offset="0.8227" style="stop-color:#FCFCFC"/>
					<stop  offset="1" style="stop-color:#FFFFFF"/>
				</linearGradient>
				<rect x="852.3" y="397.5" class="st38" width="14.3" height="10.4"/>
			</g>
		</mask>
		
			<linearGradient id="SVGID_65_" gradientUnits="userSpaceOnUse" x1="0" y1="768.0001" x2="1" y2="768.0001" gradientTransform="matrix(13.7657 0 0 -13.7657 852.5914 10974.7334)">
			<stop  offset="0" style="stop-color:#643695"/>
			<stop  offset="5.967120e-07" style="stop-color:#643695"/>
			<stop  offset="1" style="stop-color:#643695"/>
		</linearGradient>
		<rect x="852.3" y="397.5" class="st39" width="14.3" height="10.4"/>
	</g>
	<g class="st0">
		<defs>
			<rect id="SVGID_66_" width="1366" height="768"/>
		</defs>
		<clipPath id="SVGID_67_">
			<use xlink:href="#SVGID_66_"  style="overflow:visible;"/>
		</clipPath>
		<path class="st40" d="M871.3,424.4c-0.6,0-1.3-0.3-1.6-0.9c-0.6-0.9-0.3-2.1,0.6-2.7c10.6-6.8,19.5-16.2,25.9-27.2
			c1.5-2.7,0.6-6.1-2.1-7.7c-1.3-0.7-2.8-0.9-4.3-0.5c-1.4,0.4-2.6,1.3-3.4,2.6c-4.4,7.6-10,14.2-16.8,19.5
			c-0.8,0.7-2.1,0.5-2.7-0.3c-0.7-0.8-0.5-2.1,0.3-2.7c6.4-5,11.7-11.2,15.8-18.4c1.3-2.2,3.3-3.8,5.7-4.4c2.5-0.7,5-0.3,7.2,0.9
			c4.5,2.6,6.1,8.4,3.5,13c-6.7,11.6-16.1,21.5-27.2,28.6C872,424.3,871.6,424.4,871.3,424.4"/>
	</g>
	<g class="st0">
		<defs>
			<path id="SVGID_68_" d="M889.5,389.7c-5.4,9.3-12.5,17.2-21.3,23.3c-0.9,0.6-1.1,1.8-0.5,2.7c0.4,0.5,1,0.8,1.6,0.8
				c0.4,0,0.8-0.1,1.1-0.3c9.3-6.4,16.8-14.7,22.5-24.5c0.5-0.9,0.2-2.1-0.7-2.7c-0.3-0.2-0.6-0.3-1-0.3
				C890.6,388.8,889.9,389.1,889.5,389.7"/>
		</defs>
		<clipPath id="SVGID_69_">
			<use xlink:href="#SVGID_68_"  style="overflow:visible;"/>
		</clipPath>
		<defs>
			<filter id="Adobe_OpacityMaskFilter_11_" filterUnits="userSpaceOnUse" x="853.2" y="375.6" width="54.1" height="54.1">
				<feColorMatrix  type="matrix" values="1 0 0 0 0  0 1 0 0 0  0 0 1 0 0  0 0 0 1 0"/>
			</filter>
		</defs>
		<mask maskUnits="userSpaceOnUse" x="853.2" y="375.6" width="54.1" height="54.1" id="SVGID_70_">
			<g class="st41">
				
					<linearGradient id="SVGID_71_" gradientUnits="userSpaceOnUse" x1="0" y1="767.9789" x2="1" y2="767.9789" gradientTransform="matrix(-21.1382 21.4201 21.4201 21.1382 -15558.4053 -15842.707)">
					<stop  offset="0" style="stop-color:#FFFFFF"/>
					<stop  offset="1.065560e-08" style="stop-color:#FFFFFF"/>
					<stop  offset="1" style="stop-color:#000000"/>
					<stop  offset="1" style="stop-color:#000000"/>
				</linearGradient>
				<polygon class="st42" points="907.4,402.5 880.5,429.7 853.2,402.8 880.1,375.6 				"/>
			</g>
		</mask>
		
			<linearGradient id="SVGID_72_" gradientUnits="userSpaceOnUse" x1="0" y1="767.9789" x2="1" y2="767.9789" gradientTransform="matrix(-21.1382 21.4201 21.4201 21.1382 -15558.4053 -15842.707)">
			<stop  offset="0" style="stop-color:#0097CC"/>
			<stop  offset="1.065560e-08" style="stop-color:#0097CC"/>
			<stop  offset="1" style="stop-color:#0097CC"/>
			<stop  offset="1" style="stop-color:#0097CC"/>
		</linearGradient>
		<polygon class="st43" points="907.4,402.5 880.5,429.7 853.2,402.8 880.1,375.6 		"/>
	</g>
	<g class="st0">
		<defs>
			<rect id="SVGID_73_" width="1366" height="768"/>
		</defs>
		<clipPath id="SVGID_74_">
			<use xlink:href="#SVGID_73_"  style="overflow:visible;"/>
		</clipPath>
		<path class="st44" d="M928,404.8c0,1.1-0.9,2.1-2.1,2.1s-2.1-0.9-2.1-2.1c0-1.1,0.9-2.1,2.1-2.1S928,403.7,928,404.8"/>
		<path class="st44" d="M870.8,395.6c0,1.1-0.9,2.1-2.1,2.1s-2.1-0.9-2.1-2.1c0-1.1,0.9-2.1,2.1-2.1S870.8,394.4,870.8,395.6"/>
		<path class="st44" d="M845.3,377.5c0,1.1-0.9,2.1-2.1,2.1s-2.1-0.9-2.1-2.1c0-1.1,0.9-2.1,2.1-2.1S845.3,376.3,845.3,377.5"/>
		<path class="st44" d="M877.9,374.3c0,1.1-0.9,2.1-2.1,2.1s-2.1-0.9-2.1-2.1c0-1.1,0.9-2.1,2.1-2.1S877.9,373.2,877.9,374.3"/>
	</g>
</g>
</svg>
