<svg width="24" height="25" viewBox="0 0 24 25" fill="none" xmlns="http://www.w3.org/2000/svg">
<path d="M14.3206 19.5717C14.3206 20.1817 13.9205 20.9817 13.4105 21.2917L12.0005 22.2017C10.6905 23.0117 8.87054 22.1017 8.87054 20.4817V15.1317C8.87054 14.4217 8.47055 13.5117 8.06055 13.0117L4.22052 8.97171C3.71052 8.46171 3.31055 7.56172 3.31055 6.95172V4.63171C3.31055 3.42171 4.22057 2.51172 5.33057 2.51172H18.6705C19.7805 2.51172 20.6906 3.42171 20.6906 4.53171V6.75171C20.6906 7.56171 20.1805 8.57172 19.6805 9.07172" stroke="#736F77" stroke-width="1.5" stroke-miterlimit="10" stroke-linecap="round" stroke-linejoin="round"/>
<path d="M16.0692 17.0211C17.8365 17.0211 19.2692 15.5884 19.2692 13.8211C19.2692 12.0538 17.8365 10.6211 16.0692 10.6211C14.3018 10.6211 12.8691 12.0538 12.8691 13.8211C12.8691 15.5884 14.3018 17.0211 16.0692 17.0211Z" stroke="#736F77" stroke-width="1.5" stroke-linecap="round" stroke-linejoin="round"/>
<path d="M19.8691 17.6211L18.8691 16.6211" stroke="#736F77" stroke-width="1.5" stroke-linecap="round" stroke-linejoin="round"/>
</svg>
