<svg width="657" height="191" viewBox="0 0 657 191" fill="none" xmlns="http://www.w3.org/2000/svg">
<path d="M211.683 142.753C204.99 139.753 199.67 135.637 195.808 130.407C191.861 125.177 189.802 119.433 189.373 113.088H215.63C216.144 117.032 218.032 120.376 221.464 122.948C224.897 125.52 229.101 126.892 234.164 126.892C239.14 126.892 243.002 125.949 245.747 123.891C248.579 121.919 249.952 119.347 249.952 116.26C249.952 112.917 248.236 110.43 244.804 108.716C241.371 107.001 235.966 105.2 228.5 103.228C220.778 101.342 214.514 99.4559 209.623 97.4839C204.732 95.5119 200.528 92.4254 197.01 88.3957C193.492 84.2803 191.69 78.7931 191.69 71.8483C191.69 66.1896 193.32 60.9596 196.581 56.244C199.841 51.5284 204.561 47.8417 210.739 45.0981C216.917 42.3545 224.124 40.9827 232.447 40.9827C244.718 40.9827 254.5 44.0692 261.793 50.1566C269.087 56.244 273.119 64.5606 273.892 74.9348H249.008C248.665 70.8194 246.949 67.5614 243.86 65.1607C240.856 62.7601 236.738 61.5597 231.675 61.5597C226.956 61.5597 223.352 62.4171 220.778 64.1319C218.204 65.8466 217.002 68.2473 217.002 71.4196C217.002 74.8491 218.719 77.507 222.237 79.3075C225.755 81.108 231.075 82.9085 238.454 84.7947C245.919 86.6809 252.011 88.5672 256.902 90.5391C261.707 92.5111 265.912 95.5977 269.43 99.7131C272.948 103.829 274.836 109.316 274.921 116.175C274.921 122.091 273.291 127.492 270.03 132.122C266.77 136.838 262.05 140.524 255.872 143.182C249.694 145.84 242.573 147.212 234.421 147.212C226.012 147.383 218.375 145.84 211.683 142.753Z" fill="black"/>
<path d="M306.069 140.782C298.175 136.409 291.911 130.15 287.363 122.091C282.815 114.031 280.584 104.772 280.584 94.2259C280.584 83.6801 282.901 74.4204 287.535 66.3611C292.168 58.3017 298.518 52.0429 306.584 47.6702C314.649 43.2976 323.659 41.0684 333.527 41.0684C343.394 41.0684 352.404 43.2976 360.47 47.6702C368.535 52.0429 374.885 58.3017 379.518 66.3611C384.152 74.4204 386.469 83.6801 386.469 94.2259C386.469 104.772 384.066 114.031 379.347 122.091C374.627 130.15 368.106 136.323 360.041 140.782C351.889 145.154 342.879 147.383 332.84 147.383C322.972 147.383 314.049 145.154 306.069 140.782ZM346.14 121.233C350.259 118.918 353.605 115.489 356.093 110.945C358.582 106.401 359.783 100.828 359.783 94.2259C359.783 84.4518 357.209 76.9068 352.061 71.6768C346.912 66.4468 340.648 63.7889 333.183 63.7889C325.718 63.7889 319.54 66.4468 314.478 71.6768C309.415 76.9068 306.927 84.4518 306.927 94.2259C306.927 104 309.415 111.545 314.306 116.775C319.197 122.005 325.375 124.663 332.84 124.663C337.559 124.663 342.021 123.548 346.14 121.233Z" fill="black"/>
<path d="M459.146 64.1319H430.058V145.669H403.63V64.1319H391.874V42.6974H403.63V37.5532C403.63 24.9497 407.234 15.6043 414.441 9.68837C421.649 3.77246 432.46 0.943109 446.962 1.28606V23.2349C440.612 23.1492 436.236 24.1781 433.748 26.4072C431.259 28.6364 430.058 32.6661 430.058 38.4963V42.7832H459.146V64.1319Z" fill="black"/>
<path d="M487.376 42.6974H510.458V64.0462H487.376V113.86C487.376 117.289 488.234 119.861 489.864 121.405C491.495 122.948 494.326 123.72 498.359 123.72H510.458V145.669H494.069C472.103 145.669 461.12 135.037 461.12 113.688V64.1319H448.849V42.6974H461.12H487.376Z" fill="black"/>
<path d="M524.101 26.0643C521.098 23.1492 519.553 19.5482 519.553 15.1756C519.553 10.8887 521.098 7.20198 524.101 4.28689C527.19 1.45754 530.965 0 535.599 0C540.147 0 544.008 1.45754 547.011 4.37263C550.014 7.28772 551.559 10.8887 551.559 15.2613C551.559 19.634 550.014 23.235 547.011 26.15C544.008 29.0651 540.147 30.5227 535.599 30.5227C530.965 30.4369 527.19 28.9794 524.101 26.0643ZM548.384 145.669H522.385V42.7832H548.384V145.669Z" fill="black"/>
<path d="M563.915 66.2753C568.205 58.3017 574.297 52.1286 581.934 47.6702C589.656 43.2976 598.409 41.0684 608.362 41.0684C621.147 41.0684 631.701 44.2407 640.024 50.6711C648.433 57.0157 654.011 66.0181 656.842 77.507H628.784C627.325 73.0486 624.751 69.5334 621.233 67.047C617.715 64.4748 613.339 63.2745 608.105 63.2745C600.64 63.2745 594.805 65.9324 590.429 71.3339C586.053 76.7354 583.908 84.366 583.908 94.3116C583.908 104.086 586.053 111.716 590.429 117.032C594.719 122.434 600.64 125.091 608.105 125.091C618.659 125.091 625.523 120.376 628.698 110.945H656.757C653.925 122.091 648.262 130.922 639.853 137.523C631.444 144.125 620.89 147.383 608.276 147.383C598.323 147.383 589.571 145.154 581.848 140.782C574.126 136.409 568.119 130.15 563.829 122.176C559.453 114.203 557.308 104.857 557.308 94.2259C557.394 83.5944 559.539 74.249 563.915 66.2753Z" fill="black"/>
<path d="M203.274 186.651H195.122L193.749 190.681H190.403L197.353 171.133H201.043L208.079 190.681H204.732L203.274 186.651ZM202.415 184.079L199.241 174.991L196.066 184.079H202.415Z" fill="black"/>
<path d="M227.728 172.333C229.273 173.105 230.474 174.305 231.332 175.763C232.19 177.22 232.619 179.021 232.619 180.993C232.619 182.965 232.19 184.679 231.332 186.137C230.474 187.594 229.273 188.709 227.728 189.481C226.184 190.252 224.382 190.681 222.237 190.681H215.887V171.218H222.237C224.296 171.218 226.098 171.561 227.728 172.333ZM227.471 186.223C228.672 185.022 229.273 183.222 229.273 180.993C229.273 178.763 228.672 176.963 227.471 175.677C226.269 174.391 224.468 173.791 222.237 173.791H219.062V188.109H222.237C224.553 188.109 226.269 187.423 227.471 186.223Z" fill="black"/>
<path d="M257.331 171.218L250.038 190.681H246.348L238.969 171.218H242.401L248.15 187.423L253.985 171.218H257.331Z" fill="black"/>
<path d="M276.552 186.651H268.4L267.027 190.681H263.681L270.631 171.133H274.321L281.357 190.681H278.01L276.552 186.651ZM275.694 184.079L272.519 174.991L269.344 184.079H275.694Z" fill="black"/>
<path d="M305.211 190.681H301.95L292.34 176.106V190.681H289.165V171.133H292.34L301.95 185.708V171.133H305.211V190.681Z" fill="black"/>
<path d="M314.392 175.763C315.25 174.219 316.451 173.105 317.996 172.247C319.54 171.39 321.171 170.961 322.972 170.961C325.032 170.961 326.92 171.476 328.55 172.505C330.18 173.533 331.381 174.991 332.068 176.877H328.207C327.692 175.848 327.005 175.077 326.061 174.562C325.203 174.048 324.174 173.791 322.972 173.791C321.685 173.791 320.57 174.048 319.54 174.648C318.511 175.248 317.738 176.106 317.138 177.134C316.537 178.249 316.28 179.449 316.28 180.907C316.28 182.364 316.537 183.565 317.138 184.679C317.738 185.794 318.511 186.566 319.54 187.166C320.57 187.766 321.685 188.023 322.972 188.023C324.174 188.023 325.203 187.766 326.061 187.251C327.005 186.737 327.692 185.965 328.207 184.937H332.068C331.381 186.823 330.18 188.28 328.55 189.223C326.92 190.252 325.118 190.767 322.972 190.767C321.171 190.767 319.454 190.338 317.91 189.481C316.365 188.623 315.164 187.423 314.306 185.965C313.448 184.422 312.933 182.707 312.933 180.821C313.105 178.935 313.534 177.306 314.392 175.763Z" fill="black"/>
<path d="M343.823 173.791V179.449H350.602V182.107H343.823V188.109H351.374V190.681H340.648V171.133H351.374V173.791H343.823Z" fill="black"/>
<path d="M371.967 172.333C373.512 173.105 374.713 174.305 375.571 175.763C376.429 177.22 376.858 179.021 376.858 180.993C376.858 182.965 376.429 184.679 375.571 186.137C374.713 187.594 373.512 188.709 371.967 189.481C370.423 190.252 368.621 190.681 366.476 190.681H360.126V171.218H366.476C368.535 171.218 370.423 171.561 371.967 172.333ZM371.71 186.223C372.911 185.022 373.512 183.222 373.512 180.993C373.512 178.763 372.911 176.963 371.71 175.677C370.509 174.391 368.707 173.791 366.476 173.791H363.301V188.109H366.476C368.793 188.109 370.509 187.423 371.71 186.223Z" fill="black"/>
<path d="M409.808 179.792C409.293 180.65 408.607 181.421 407.577 181.936C406.547 182.536 405.26 182.793 403.63 182.793H400.112V190.681H396.937V171.133H403.716C405.174 171.133 406.461 171.39 407.491 171.904C408.521 172.419 409.293 173.105 409.808 173.962C410.323 174.819 410.58 175.848 410.58 176.877C410.494 177.992 410.237 178.935 409.808 179.792ZM406.29 179.364C406.89 178.849 407.148 178.077 407.148 177.049C407.148 174.905 405.947 173.876 403.544 173.876H400.026V180.221H403.544C404.831 180.135 405.689 179.878 406.29 179.364Z" fill="black"/>
<path d="M428.513 190.681L424.052 182.879H421.649V190.681H418.474V171.218H425.167C426.712 171.218 427.913 171.476 428.943 171.99C429.972 172.505 430.744 173.19 431.259 174.134C431.774 174.991 432.032 176.02 432.032 177.049C432.032 178.335 431.688 179.449 430.916 180.478C430.144 181.507 429.028 182.193 427.484 182.622L432.289 190.681H428.513ZM421.563 180.307H425.081C426.283 180.307 427.226 180.049 427.827 179.449C428.428 178.849 428.771 178.077 428.771 177.049C428.771 176.02 428.428 175.248 427.913 174.648C427.312 174.048 426.368 173.791 425.167 173.791H421.649V180.307H421.563Z" fill="black"/>
<path d="M444.731 189.566C443.186 188.709 441.985 187.509 441.127 185.965C440.269 184.422 439.84 182.707 439.84 180.821C439.84 178.935 440.269 177.22 441.127 175.677C441.985 174.134 443.272 173.019 444.731 172.162C446.275 171.304 447.906 170.876 449.708 170.876C451.509 170.876 453.226 171.304 454.77 172.162C456.315 173.019 457.516 174.219 458.374 175.677C459.232 177.22 459.661 178.935 459.661 180.821C459.661 182.707 459.232 184.422 458.374 185.965C457.516 187.509 456.315 188.709 454.77 189.566C453.226 190.424 451.595 190.852 449.708 190.852C447.991 190.852 446.275 190.424 444.731 189.566ZM453.226 187.251C454.255 186.651 455.027 185.794 455.628 184.765C456.229 183.65 456.486 182.364 456.486 180.993C456.486 179.621 456.229 178.335 455.628 177.22C455.027 176.106 454.255 175.334 453.226 174.734C452.196 174.134 451.08 173.876 449.793 173.876C448.506 173.876 447.391 174.134 446.361 174.734C445.331 175.334 444.559 176.106 443.959 177.22C443.358 178.335 443.1 179.535 443.1 180.993C443.1 182.45 443.358 183.736 443.959 184.765C444.559 185.88 445.331 186.737 446.361 187.251C447.391 187.852 448.506 188.109 449.793 188.109C451.08 188.109 452.196 187.766 453.226 187.251Z" fill="black"/>
<path d="M481.799 176.791C481.284 175.848 480.598 175.077 479.654 174.562C478.71 174.048 477.68 173.791 476.565 173.791C475.278 173.791 474.162 174.048 473.132 174.648C472.103 175.248 471.331 176.02 470.73 177.134C470.129 178.163 469.872 179.449 469.872 180.821C469.872 182.193 470.129 183.479 470.73 184.508C471.331 185.622 472.103 186.394 473.132 186.994C474.162 187.594 475.278 187.852 476.565 187.852C478.281 187.852 479.739 187.337 480.769 186.394C481.885 185.451 482.485 184.079 482.743 182.45H475.449V179.878H486.175V182.364C486.003 183.908 485.403 185.28 484.545 186.566C483.687 187.852 482.571 188.88 481.112 189.652C479.739 190.424 478.195 190.767 476.479 190.767C474.677 190.767 472.961 190.338 471.502 189.481C469.958 188.623 468.756 187.423 467.898 185.965C467.04 184.422 466.611 182.707 466.611 180.821C466.611 178.935 467.04 177.22 467.898 175.677C468.756 174.134 470.043 172.933 471.502 172.162C473.047 171.304 474.677 170.876 476.479 170.876C478.538 170.876 480.426 171.39 482.056 172.419C483.687 173.448 484.888 174.905 485.574 176.791H481.799Z" fill="black"/>
<path d="M504.28 190.681L499.818 182.879H497.415V190.681H494.241V171.218H500.933C502.478 171.218 503.679 171.476 504.709 171.99C505.739 172.505 506.511 173.19 507.026 174.134C507.54 174.991 507.798 176.02 507.798 177.049C507.798 178.335 507.455 179.449 506.682 180.478C505.91 181.507 504.795 182.193 503.25 182.622L508.055 190.681H504.28ZM497.33 180.307H500.848C502.049 180.307 502.993 180.049 503.593 179.449C504.194 178.849 504.537 178.077 504.537 177.049C504.537 176.02 504.194 175.248 503.679 174.648C503.079 174.048 502.135 173.791 500.933 173.791H497.415V180.307H497.33Z" fill="black"/>
<path d="M528.391 186.651H520.24L518.867 190.681H515.52L522.471 171.133H526.16L533.196 190.681H529.85L528.391 186.651ZM527.533 184.079L524.358 174.991L521.184 184.079H527.533Z" fill="black"/>
<path d="M561.512 171.218V190.681H558.337V177.306L552.417 190.681H550.186L544.179 177.306V190.681H541.005V171.218H544.437L551.301 186.48L558.08 171.218H561.512Z" fill="black"/>
<path d="M591.115 171.218V190.681H587.855V177.306L581.934 190.681H579.703L573.697 177.306V190.681H570.522V171.218H573.954L580.818 186.48L587.683 171.218H591.115Z" fill="black"/>
<path d="M603.214 171.218H600.039V190.681H603.214V171.218Z" fill="black"/>
<path d="M628.269 190.681H625.094L615.484 176.106V190.681H612.223V171.133H615.484L625.094 185.708V171.133H628.269V190.681Z" fill="black"/>
<path d="M651.351 176.791C650.836 175.848 650.15 175.077 649.206 174.562C648.262 174.048 647.232 173.791 646.117 173.791C644.83 173.791 643.714 174.048 642.684 174.648C641.655 175.248 640.883 176.02 640.282 177.134C639.681 178.163 639.424 179.449 639.424 180.821C639.424 182.193 639.681 183.479 640.282 184.508C640.883 185.622 641.655 186.394 642.684 186.994C643.714 187.594 644.83 187.852 646.117 187.852C647.833 187.852 649.291 187.337 650.321 186.394C651.437 185.451 652.037 184.079 652.295 182.45H645.001V179.878H655.727V182.364C655.555 183.908 654.955 185.28 654.097 186.566C653.239 187.852 652.123 188.88 650.664 189.652C649.291 190.424 647.747 190.767 646.031 190.767C644.229 190.767 642.513 190.338 641.054 189.481C639.51 188.623 638.308 187.423 637.45 185.965C636.592 184.422 636.163 182.707 636.163 180.821C636.163 178.935 636.592 177.22 637.45 175.677C638.308 174.134 639.595 172.933 641.054 172.162C642.599 171.304 644.229 170.876 646.031 170.876C648.09 170.876 649.978 171.39 651.608 172.419C653.239 173.448 654.44 174.905 655.126 176.791H651.351Z" fill="black"/>
<path d="M109.059 163.588H0V190.852H109.059V163.588Z" fill="#9ACA3C"/>
<path d="M149.902 122.777H40.8435V150.041H149.902V122.777Z" fill="#663895"/>
<path d="M109.059 81.8796H0V109.144H109.059V81.8796Z" fill="#0898CD"/>
<path d="M149.902 41.0684H40.8435V68.333H149.902V41.0684Z" fill="#663895"/>
</svg>
